<svg xmlns="http://www.w3.org/2000/svg" width="573.4476318359375" height="750.4171752929688" viewBox="-220.53790283203125 -269.17633056640625 573.4476318359375 750.4171752929688"><title>Neo4j Graph Visualization</title><desc>Created using Neo4j (http://www.neo4j.com/)</desc><g class="layer relationships"><g class="relationship" transform="translate(296.0925136126546 279.4120948918364) rotate(433.9489717599868)"><path class="outline" fill="#A5ABB6" stroke="none" d="M 25 0.5 L 25.13561739767907 0.5 L 25.13561739767907 -0.5 L 25 -0.5 Z M 68.47155489767907 0.5 L 68.60717229535814 0.5 L 68.60717229535814 3.5 L 75.60717229535814 0 L 68.60717229535814 -3.5 L 68.60717229535814 -0.5 L 68.47155489767907 -0.5 Z"/><text text-anchor="middle" pointer-events="none" font-size="8px" fill="#000000" x="46.80358614767907" y="3" font-family="sans-serif">DESTIN…</text></g><g class="relationship" transform="translate(296.0925136126546 279.4120948918364) rotate(197.05592392818647)"><path class="outline" fill="#A5ABB6" stroke="none" d="M 25 0.5 L 43.93898192837821 0.5 L 43.93898192837821 -0.5 L 25 -0.5 Z M 78.38429442837821 0.5 L 97.32327635675642 0.5 L 97.32327635675642 3.5 L 104.32327635675642 0 L 97.32327635675642 -3.5 L 97.32327635675642 -0.5 L 78.38429442837821 -0.5 Z"/><text text-anchor="middle" pointer-events="none" font-size="8px" fill="#000000" x="61.16163817837821" y="3" transform="rotate(180 61.16163817837821 0)" font-family="sans-serif">ORIGIN</text></g><g class="relationship" transform="translate(180.14217917749434 111.68340898704876) rotate(453.388462820448)"><path class="outline" fill="#A5ABB6" stroke="none" d="M 25 0.5 L 31.918670898592296 0.5 L 31.918670898592296 -0.5 L 25 -0.5 Z M 91.1061708985923 0.5 L 98.02484179718459 0.5 L 98.02484179718459 3.5 L 105.02484179718459 0 L 98.02484179718459 -3.5 L 98.02484179718459 -0.5 L 91.1061708985923 -0.5 Z"/><text text-anchor="middle" pointer-events="none" font-size="8px" fill="#000000" x="61.512420898592296" y="3" transform="rotate(180 61.512420898592296 0)" font-family="sans-serif">DESTINATION</text></g><g class="relationship" transform="translate(180.14217917749434 111.68340898704876) rotate(212.61250525522053)"><path class="outline" fill="#A5ABB6" stroke="none" d="M 25 0.5 L 51.687606940749575 0.5 L 51.687606940749575 -0.5 L 25 -0.5 Z M 86.13291944074957 0.5 L 112.82052638149915 0.5 L 112.82052638149915 3.5 L 119.82052638149915 0 L 112.82052638149915 -3.5 L 112.82052638149915 -0.5 L 86.13291944074957 -0.5 Z"/><text text-anchor="middle" pointer-events="none" font-size="8px" fill="#000000" x="68.91026319074957" y="3" transform="rotate(180 68.91026319074957 0)" font-family="sans-serif">ORIGIN</text></g><g class="relationship" transform="translate(51.96221889307422 -67.89028814494853) rotate(229.71087024453095)"><path class="outline" fill="#A5ABB6" stroke="none" d="M 25 0.5 L 26.61868365680006 0.5 L 26.61868365680006 -0.5 L 25 -0.5 Z M 69.95462115680006 0.5 L 71.57330481360012 0.5 L 71.57330481360012 3.5 L 78.57330481360012 0 L 71.57330481360012 -3.5 L 71.57330481360012 -0.5 L 69.95462115680006 -0.5 Z"/><text text-anchor="middle" pointer-events="none" font-size="8px" fill="#000000" x="48.28665240680006" y="3" transform="rotate(180 48.28665240680006 0)" font-family="sans-serif">DESTIN…</text></g><g class="relationship" transform="translate(51.96221889307422 -67.89028814494853) rotate(446.5094227792345)"><path class="outline" fill="#A5ABB6" stroke="none" d="M 25 0.5 L 30.132690266599845 0.5 L 30.132690266599845 -0.5 L 25 -0.5 Z M 64.57800276659984 0.5 L 69.71069303319969 0.5 L 69.71069303319969 3.5 L 76.71069303319969 0 L 69.71069303319969 -3.5 L 69.71069303319969 -0.5 L 64.57800276659984 -0.5 Z"/><text text-anchor="middle" pointer-events="none" font-size="8px" fill="#000000" x="47.355346516599845" y="3" font-family="sans-serif">ORIGIN</text></g><g class="relationship" transform="translate(272.366457889278 406.6487746732464) rotate(280.5627352555613)"><path class="outline" fill="#A5ABB6" stroke="none" d="M 25 0.5 L 43.09971444284626 0.5 L 43.09971444284626 -0.5 L 25 -0.5 Z M 79.33018319284626 0.5 L 97.42989763569253 0.5 L 97.42989763569253 3.5 L 104.42989763569253 0 L 97.42989763569253 -3.5 L 97.42989763569253 -0.5 L 79.33018319284626 -0.5 Z"/><text text-anchor="middle" pointer-events="none" font-size="8px" fill="#000000" x="61.21494881784626" y="3" font-family="sans-serif">ASSIGN</text></g><g class="relationship" transform="translate(312.5615686535975 102.18742619622097) rotate(535.8982596346486)"><path class="outline" fill="#A5ABB6" stroke="none" d="M 25 0.5 L 44.76448466324915 0.5 L 44.76448466324915 -0.5 L 25 -0.5 Z M 80.99495341324915 0.5 L 100.7594380764983 0.5 L 100.7594380764983 3.5 L 107.7594380764983 0 L 100.7594380764983 -3.5 L 100.7594380764983 -0.5 L 80.99495341324915 -0.5 Z"/><text text-anchor="middle" pointer-events="none" font-size="8px" fill="#000000" x="62.87971903824915" y="3" transform="rotate(180 62.87971903824915 0)" font-family="sans-serif">ASSIGN</text></g><g class="relationship" transform="translate(189.5532638068576 -59.59542934147438) rotate(183.4499765956889)"><path class="outline" fill="#A5ABB6" stroke="none" d="M 25 0.5 L 47.3051913401614 0.5 L 47.3051913401614 -0.5 L 25 -0.5 Z M 83.5356600901614 0.5 L 105.8408514303228 0.5 L 105.8408514303228 3.5 L 112.8408514303228 0 L 105.8408514303228 -3.5 L 105.8408514303228 -0.5 L 83.5356600901614 -0.5 Z"/><text text-anchor="middle" pointer-events="none" font-size="8px" fill="#000000" x="65.4204257151614" y="3" transform="rotate(180 65.4204257151614 0)" font-family="sans-serif">ASSIGN</text></g><g class="relationship" transform="translate(115.00592624617492 -76.9627312691066) rotate(208.27416442205026)"><path class="outline" fill="#A5ABB6" stroke="none" d="M 25 0.5 L 40.72264476006859 0.5 L 40.72264476006859 -0.5 L 25 -0.5 Z M 99.91014476006859 0.5 L 115.63278952013718 0.5 L 115.63278952013718 3.5 L 122.63278952013718 0 L 115.63278952013718 -3.5 L 115.63278952013718 -0.5 L 99.91014476006859 -0.5 Z"/><text text-anchor="middle" pointer-events="none" font-size="8px" fill="#000000" x="70.31639476006859" y="3" transform="rotate(180 70.31639476006859 0)" font-family="sans-serif">DESTINATION</text></g><g class="relationship" transform="translate(115.00592624617492 -76.9627312691066) rotate(477.2054462643051)"><path class="outline" fill="#A5ABB6" stroke="none" d="M 25 0.5 L 41.45286234172672 0.5 L 41.45286234172672 -0.5 L 25 -0.5 Z M 75.89817484172673 0.5 L 92.35103718345344 0.5 L 92.35103718345344 3.5 L 99.35103718345344 0 L 92.35103718345344 -3.5 L 92.35103718345344 -0.5 L 75.89817484172673 -0.5 Z"/><text text-anchor="middle" pointer-events="none" font-size="8px" fill="#000000" x="58.67551859172672" y="3" transform="rotate(180 58.67551859172672 0)" font-family="sans-serif">ORIGIN</text></g><g class="relationship" transform="translate(249.386264591616 -126.82282955623955) rotate(519.6432750132741)"><path class="outline" fill="#A5ABB6" stroke="none" d="M 25 0.5 L 50.05083977281032 0.5 L 50.05083977281032 -0.5 L 25 -0.5 Z M 86.28130852281032 0.5 L 111.33214829562064 0.5 L 111.33214829562064 3.5 L 118.33214829562064 0 L 111.33214829562064 -3.5 L 111.33214829562064 -0.5 L 86.28130852281032 -0.5 Z"/><text text-anchor="middle" pointer-events="none" font-size="8px" fill="#000000" x="68.16607414781032" y="3" transform="rotate(180 68.16607414781032 0)" font-family="sans-serif">ASSIGN</text></g><g class="relationship" transform="translate(-46.965391469318604 -59.1819972469218) rotate(401.4422286781062)"><path class="outline" fill="#A5ABB6" stroke="none" d="M 25 0.5 L 49.392681127475555 0.5 L 49.392681127475555 -0.5 L 25 -0.5 Z M 83.83799362747556 0.5 L 108.23067475495111 0.5 L 108.23067475495111 3.5 L 115.23067475495111 0 L 108.23067475495111 -3.5 L 108.23067475495111 -0.5 L 83.83799362747556 -0.5 Z"/><text text-anchor="middle" pointer-events="none" font-size="8px" fill="#000000" x="66.61533737747556" y="3" font-family="sans-serif">ORIGIN</text></g><g class="relationship" transform="translate(-46.965391469318604 -59.1819972469218) rotate(290.0158567738502)"><path class="outline" fill="#A5ABB6" stroke="none" d="M 25 0.5 L 25.50788884865362 0.5 L 25.50788884865362 -0.5 L 25 -0.5 Z M 60.84382634865362 0.5 L 61.35171519730724 0.5 L 61.35171519730724 3.5 L 68.35171519730724 0 L 61.35171519730724 -3.5 L 61.35171519730724 -0.5 L 60.84382634865362 -0.5 Z"/><text text-anchor="middle" pointer-events="none" font-size="8px" fill="#000000" x="43.17585759865362" y="3" font-family="sans-serif">DEST…</text></g><g class="relationship" transform="translate(-153.33280173555767 -130.89227491863966) rotate(393.9868749029126)"><path class="outline" fill="#A5ABB6" stroke="none" d="M 25 0.5 L 42.525996300949174 0.5 L 42.525996300949174 -0.5 L 25 -0.5 Z M 78.75646505094917 0.5 L 96.28246135189835 0.5 L 96.28246135189835 3.5 L 103.28246135189835 0 L 96.28246135189835 -3.5 L 96.28246135189835 -0.5 L 78.75646505094917 -0.5 Z"/><text text-anchor="middle" pointer-events="none" font-size="8px" fill="#000000" x="60.641230675949174" y="3" font-family="sans-serif">ASSIGN</text></g><g class="relationship" transform="translate(-68.06185858936873 -3.206234177368844) rotate(376.27055949443104)"><path class="outline" fill="#A5ABB6" stroke="none" d="M 25 0.5 L 45.01865945499006 0.5 L 45.01865945499006 -0.5 L 25 -0.5 Z M 79.46397195499006 0.5 L 99.48263140998012 0.5 L 99.48263140998012 3.5 L 106.48263140998012 0 L 99.48263140998012 -3.5 L 99.48263140998012 -0.5 L 79.46397195499006 -0.5 Z"/><text text-anchor="middle" pointer-events="none" font-size="8px" fill="#000000" x="62.24131570499006" y="3" font-family="sans-serif">ORIGIN</text></g><g class="relationship" transform="translate(-68.06185858936873 -3.206234177368844) rotate(290.26379157708556)"><path class="outline" fill="#A5ABB6" stroke="none" d="M 25 0.5 L 43.490631597059405 0.5 L 43.490631597059405 -0.5 L 25 -0.5 Z M 102.6781315970594 0.5 L 121.16876319411881 0.5 L 121.16876319411881 3.5 L 128.1687631941188 0 L 121.16876319411881 -3.5 L 121.16876319411881 -0.5 L 102.6781315970594 -0.5 Z"/><text text-anchor="middle" pointer-events="none" font-size="8px" fill="#000000" x="73.0843815970594" y="3" font-family="sans-serif">DESTINATION</text></g><g class="relationship" transform="translate(-191.537903548938 32.45073241131436) rotate(343.8925311233445)"><path class="outline" fill="#A5ABB6" stroke="none" d="M 25 0.5 L 42.6454708521527 0.5 L 42.6454708521527 -0.5 L 25 -0.5 Z M 78.8759396021527 0.5 L 96.5214104543054 0.5 L 96.5214104543054 3.5 L 103.5214104543054 0 L 96.5214104543054 -3.5 L 96.5214104543054 -0.5 L 78.8759396021527 -0.5 Z"/><text text-anchor="middle" pointer-events="none" font-size="8px" fill="#000000" x="60.7607052271527" y="3" font-family="sans-serif">ASSIGN</text></g><g class="relationship" transform="translate(81.57626166956896 -126.63072356912745) rotate(458.31459299541757)"><path class="outline" fill="#A5ABB6" stroke="none" d="M 25 0.5 L 60.25976948734747 0.5 L 60.25976948734747 -0.5 L 25 -0.5 Z M 94.70508198734747 0.5 L 129.96485147469494 0.5 L 129.96485147469494 3.5 L 136.96485147469494 0 L 129.96485147469494 -3.5 L 129.96485147469494 -0.5 L 94.70508198734747 -0.5 Z"/><text text-anchor="middle" pointer-events="none" font-size="8px" fill="#000000" x="77.48242573734747" y="3" transform="rotate(180 77.48242573734747 0)" font-family="sans-serif">ORIGIN</text></g><g class="relationship" transform="translate(81.57626166956896 -126.63072356912745) rotate(191.84876701911918)"><path class="outline" fill="#A5ABB6" stroke="none" d="M 25 0.5 L 27.066724903440765 0.5 L 27.066724903440765 -0.5 L 25 -0.5 Z M 64.62531865344076 0.5 L 66.69204355688153 0.5 L 66.69204355688153 3.5 L 73.69204355688153 0 L 66.69204355688153 -3.5 L 66.69204355688153 -0.5 L 64.62531865344076 -0.5 Z"/><text text-anchor="middle" pointer-events="none" font-size="8px" fill="#000000" x="45.846021778440765" y="3" transform="rotate(180 45.846021778440765 0)" font-family="sans-serif">DESTI…</text></g><g class="relationship" transform="translate(144.26484733831694 -240.17632382812945) rotate(478.90311200528396)"><path class="outline" fill="#A5ABB6" stroke="none" d="M 25 0.5 L 43.23548287493685 0.5 L 43.23548287493685 -0.5 L 25 -0.5 Z M 79.46595162493685 0.5 L 97.7014344998737 0.5 L 97.7014344998737 3.5 L 104.7014344998737 0 L 97.7014344998737 -3.5 L 97.7014344998737 -0.5 L 79.46595162493685 -0.5 Z"/><text text-anchor="middle" pointer-events="none" font-size="8px" fill="#000000" x="61.35071724993685" y="3" transform="rotate(180 61.35071724993685 0)" font-family="sans-serif">ASSIGN</text></g><g class="relationship" transform="translate(41.26791640013647 171.48558169276785) rotate(388.0819505695555)"><path class="outline" fill="#A5ABB6" stroke="none" d="M 25 0.5 L 41.253288678622724 0.5 L 41.253288678622724 -0.5 L 25 -0.5 Z M 100.44078867862272 0.5 L 116.69407735724545 0.5 L 116.69407735724545 3.5 L 123.69407735724545 0 L 116.69407735724545 -3.5 L 116.69407735724545 -0.5 L 100.44078867862272 -0.5 Z"/><text text-anchor="middle" pointer-events="none" font-size="8px" fill="#000000" x="70.84703867862272" y="3" font-family="sans-serif">DESTINATION</text></g><g class="relationship" transform="translate(41.26791640013647 171.48558169276785) rotate(276.9838542774489)"><path class="outline" fill="#A5ABB6" stroke="none" d="M 25 0.5 L 48.719507014026334 0.5 L 48.719507014026334 -0.5 L 25 -0.5 Z M 83.16481951402633 0.5 L 106.88432652805267 0.5 L 106.88432652805267 3.5 L 113.88432652805267 0 L 106.88432652805267 -3.5 L 106.88432652805267 -0.5 L 83.16481951402633 -0.5 Z"/><text text-anchor="middle" pointer-events="none" font-size="8px" fill="#000000" x="65.94216326402633" y="3" font-family="sans-serif">ORIGIN</text></g><g class="relationship" transform="translate(-81.14394415372423 232.90598529276338) rotate(333.3546964542902)"><path class="outline" fill="#A5ABB6" stroke="none" d="M 25 0.5 L 46.86310085345781 0.5 L 46.86310085345781 -0.5 L 25 -0.5 Z M 83.09356960345781 0.5 L 104.95667045691562 0.5 L 104.95667045691562 3.5 L 111.95667045691562 0 L 104.95667045691562 -3.5 L 104.95667045691562 -0.5 L 83.09356960345781 -0.5 Z"/><text text-anchor="middle" pointer-events="none" font-size="8px" fill="#000000" x="64.97833522845781" y="3" font-family="sans-serif">ASSIGN</text></g><g class="relationship" transform="translate(99.52931051874856 154.24615506178802) rotate(410.10459818391945)"><path class="outline" fill="#A5ABB6" stroke="none" d="M 25 0.5 L 25.757715795645105 0.5 L 25.757715795645105 -0.5 L 25 -0.5 Z M 80.94521579564511 0.5 L 81.70293159129021 0.5 L 81.70293159129021 3.5 L 88.70293159129021 0 L 81.70293159129021 -3.5 L 81.70293159129021 -0.5 L 80.94521579564511 -0.5 Z"/><text text-anchor="middle" pointer-events="none" font-size="8px" fill="#000000" x="53.351465795645105" y="3" font-family="sans-serif">DESTINATI…</text></g><g class="relationship" transform="translate(99.52931051874856 154.24615506178802) rotate(251.06644001244422)"><path class="outline" fill="#A5ABB6" stroke="none" d="M 25 0.5 L 43.03409354165382 0.5 L 43.03409354165382 -0.5 L 25 -0.5 Z M 77.47940604165382 0.5 L 95.51349958330763 0.5 L 95.51349958330763 3.5 L 102.51349958330763 0 L 95.51349958330763 -3.5 L 95.51349958330763 -0.5 L 77.47940604165382 -0.5 Z"/><text text-anchor="middle" pointer-events="none" font-size="8px" fill="#000000" x="60.25674979165382" y="3" transform="rotate(180 60.25674979165382 0)" font-family="sans-serif">ORIGIN</text></g><g class="relationship" transform="translate(28.0687036007209 269.01922661667925) rotate(301.9074336364261)"><path class="outline" fill="#A5ABB6" stroke="none" d="M 25 0.5 L 45.98557237913025 0.5 L 45.98557237913025 -0.5 L 25 -0.5 Z M 82.21604112913025 0.5 L 103.2016135082605 0.5 L 103.2016135082605 3.5 L 110.2016135082605 0 L 103.2016135082605 -3.5 L 103.2016135082605 -0.5 L 82.21604112913025 -0.5 Z"/><text text-anchor="middle" pointer-events="none" font-size="8px" fill="#000000" x="64.10080675413025" y="3" font-family="sans-serif">ASSIGN</text></g><g class="relationship" transform="translate(185.8006908505369 368.5302876328734) rotate(264.0043479304255)"><path class="outline" fill="#A5ABB6" stroke="none" d="M 25 0.5 L 43.151422564132886 0.5 L 43.151422564132886 -0.5 L 25 -0.5 Z M 77.59673506413289 0.5 L 95.74815762826577 0.5 L 95.74815762826577 3.5 L 102.74815762826577 0 L 95.74815762826577 -3.5 L 95.74815762826577 -0.5 L 77.59673506413289 -0.5 Z"/><text text-anchor="middle" pointer-events="none" font-size="8px" fill="#000000" x="60.374078814132886" y="3" transform="rotate(180 60.374078814132886 0)" font-family="sans-serif">ORIGIN</text></g><g class="relationship" transform="translate(185.8006908505369 368.5302876328734) rotate(363.1360580265501)"><path class="outline" fill="#A5ABB6" stroke="none" d="M 25 0.5 L 36.06433720305806 0.5 L 36.06433720305806 -0.5 L 25 -0.5 Z M 95.25183720305806 0.5 L 106.31617440611612 0.5 L 106.31617440611612 3.5 L 113.31617440611612 0 L 106.31617440611612 -3.5 L 106.31617440611612 -0.5 L 95.25183720305806 -0.5 Z"/><text text-anchor="middle" pointer-events="none" font-size="8px" fill="#000000" x="65.65808720305806" y="3" font-family="sans-serif">DESTINATION</text></g><g class="relationship" transform="translate(93.89682566965347 452.24084521853393) rotate(317.67120303175557)"><path class="outline" fill="#A5ABB6" stroke="none" d="M 25 0.5 L 40.54137807791644 0.5 L 40.54137807791644 -0.5 L 25 -0.5 Z M 76.77184682791645 0.5 L 92.31322490583288 0.5 L 92.31322490583288 3.5 L 99.31322490583288 0 L 92.31322490583288 -3.5 L 92.31322490583288 -0.5 L 76.77184682791645 -0.5 Z"/><text text-anchor="middle" pointer-events="none" font-size="8px" fill="#000000" x="58.65661245291644" y="3" font-family="sans-serif">ASSIGN</text></g></g><g class="layer nodes"><g class="node" transform="translate(-15.012948384607213,-146.8950755830368)"><circle class="outline" cx="0" cy="0" r="25" fill="#4C8EDA" stroke="#2870c2" stroke-width="2px"/><text text-anchor="middle" pointer-events="none" font-family="sans-serif" dy="1.5625" font-size="25" fill="#FFFFFF"/><text text-anchor="middle" pointer-events="none" y="5" font-size="10px" fill="#FFFFFF" font-family="sans-serif"> DAY</text></g><g class="node" transform="translate(323.90972836208607,376.0971799921345)"><circle class="outline" cx="0" cy="0" r="25" fill="#4C8EDA" stroke="#2870c2" stroke-width="2px"/><text text-anchor="middle" pointer-events="none" font-family="sans-serif" dy="1.5625" font-size="25" fill="#FFFFFF"/><text text-anchor="middle" pointer-events="none" y="5" font-size="10px" fill="#FFFFFF" font-family="sans-serif"> LAX</text></g><g class="node" transform="translate(296.0925136126546,279.4120948918364)"><circle class="outline" cx="0" cy="0" r="25" fill="#ECB5C9" stroke="#da7298" stroke-width="2px"/><text text-anchor="middle" pointer-events="none" font-family="sans-serif" dy="1.5625" font-size="25" fill="#604A0E"/><text text-anchor="middle" pointer-events="none" y="5" font-size="10px" fill="#604A0E" font-family="sans-serif"> 11/30/20…</text></g><g class="node" transform="translate(172.45701343922315,241.4809348184689)"><circle class="outline" cx="0" cy="0" r="25" fill="#4C8EDA" stroke="#2870c2" stroke-width="2px"/><text text-anchor="middle" pointer-events="none" font-family="sans-serif" dy="1.5625" font-size="25" fill="#FFFFFF"/><text text-anchor="middle" pointer-events="none" y="5" font-size="10px" fill="#FFFFFF" font-family="sans-serif"> ORD</text></g><g class="node" transform="translate(180.14217917749434,111.68340898704876)"><circle class="outline" cx="0" cy="0" r="25" fill="#ECB5C9" stroke="#da7298" stroke-width="2px"/><text text-anchor="middle" pointer-events="none" font-family="sans-serif" dy="1.5625" font-size="25" fill="#604A0E"/><text text-anchor="middle" pointer-events="none" y="5" font-size="10px" fill="#604A0E" font-family="sans-serif"> 11/29/20…</text></g><g class="node" transform="translate(58.15481208323459,33.63171374072626)"><circle class="outline" cx="0" cy="0" r="25" fill="#4C8EDA" stroke="#2870c2" stroke-width="2px"/><text text-anchor="middle" pointer-events="none" font-family="sans-serif" dy="1.5625" font-size="25" fill="#FFFFFF"/><text text-anchor="middle" pointer-events="none" y="5" font-size="10px" fill="#FFFFFF" font-family="sans-serif"> MSP</text></g><g class="node" transform="translate(51.96221889307422,-67.89028814494853)"><circle class="outline" cx="0" cy="0" r="25" fill="#ECB5C9" stroke="#da7298" stroke-width="2px"/><text text-anchor="middle" pointer-events="none" font-family="sans-serif" dy="1.5625" font-size="25" fill="#604A0E"/><text text-anchor="middle" pointer-events="none" y="5" font-size="10px" fill="#604A0E" font-family="sans-serif"> 11/11/20…</text></g><g class="node" transform="translate(272.366457889278,406.6487746732464)"><circle class="outline" cx="0" cy="0" r="25" fill="#FFC454" stroke="#d7a013" stroke-width="2px"/><text text-anchor="middle" pointer-events="none" font-family="sans-serif" dy="1.5625" font-size="25" fill="#604A0E"/><text text-anchor="middle" pointer-events="none" y="5" font-size="10px" fill="#604A0E" font-family="sans-serif"> economy</text></g><g class="node" transform="translate(312.5615686535975,102.18742619622097)"><circle class="outline" cx="0" cy="0" r="25" fill="#FFC454" stroke="#d7a013" stroke-width="2px"/><text text-anchor="middle" pointer-events="none" font-family="sans-serif" dy="1.5625" font-size="25" fill="#604A0E"/><text text-anchor="middle" pointer-events="none" y="5" font-size="10px" fill="#604A0E" font-family="sans-serif"> economy</text></g><g class="node" transform="translate(189.5532638068576,-59.59542934147438)"><circle class="outline" cx="0" cy="0" r="25" fill="#FFC454" stroke="#d7a013" stroke-width="2px"/><text text-anchor="middle" pointer-events="none" font-family="sans-serif" dy="1.5625" font-size="25" fill="#604A0E"/><text text-anchor="middle" pointer-events="none" y="5" font-size="10px" fill="#604A0E" font-family="sans-serif"> economy</text></g><g class="node" transform="translate(115.00592624617492,-76.9627312691066)"><circle class="outline" cx="0" cy="0" r="25" fill="#ECB5C9" stroke="#da7298" stroke-width="2px"/><text text-anchor="middle" pointer-events="none" font-family="sans-serif" dy="1.5625" font-size="25" fill="#604A0E"/><text text-anchor="middle" pointer-events="none" y="5" font-size="10px" fill="#604A0E" font-family="sans-serif"> 11/20/20…</text></g><g class="node" transform="translate(249.386264591616,-126.82282955623955)"><circle class="outline" cx="0" cy="0" r="25" fill="#FFC454" stroke="#d7a013" stroke-width="2px"/><text text-anchor="middle" pointer-events="none" font-family="sans-serif" dy="1.5625" font-size="25" fill="#604A0E"/><text text-anchor="middle" pointer-events="none" y="5" font-size="10px" fill="#604A0E" font-family="sans-serif"> economy</text></g><g class="node" transform="translate(-46.965391469318604,-59.1819972469218)"><circle class="outline" cx="0" cy="0" r="25" fill="#ECB5C9" stroke="#da7298" stroke-width="2px"/><text text-anchor="middle" pointer-events="none" font-family="sans-serif" dy="1.5625" font-size="25" fill="#604A0E"/><text text-anchor="middle" pointer-events="none" y="5" font-size="10px" fill="#604A0E" font-family="sans-serif"> 11/16/20…</text></g><g class="node" transform="translate(-153.33280173555767,-130.89227491863966)"><circle class="outline" cx="0" cy="0" r="25" fill="#FFC454" stroke="#d7a013" stroke-width="2px"/><text text-anchor="middle" pointer-events="none" font-family="sans-serif" dy="1.5625" font-size="25" fill="#604A0E"/><text text-anchor="middle" pointer-events="none" y="5" font-size="10px" fill="#604A0E" font-family="sans-serif"> economy</text></g><g class="node" transform="translate(-68.06185858936873,-3.206234177368844)"><circle class="outline" cx="0" cy="0" r="25" fill="#ECB5C9" stroke="#da7298" stroke-width="2px"/><text text-anchor="middle" pointer-events="none" font-family="sans-serif" dy="1.5625" font-size="25" fill="#604A0E"/><text text-anchor="middle" pointer-events="none" y="5" font-size="10px" fill="#604A0E" font-family="sans-serif"> 11/23/20…</text></g><g class="node" transform="translate(-191.537903548938,32.45073241131436)"><circle class="outline" cx="0" cy="0" r="25" fill="#FFC454" stroke="#d7a013" stroke-width="2px"/><text text-anchor="middle" pointer-events="none" font-family="sans-serif" dy="1.5625" font-size="25" fill="#604A0E"/><text text-anchor="middle" pointer-events="none" y="5" font-size="10px" fill="#604A0E" font-family="sans-serif"> economy</text></g><g class="node" transform="translate(81.57626166956896,-126.63072356912745)"><circle class="outline" cx="0" cy="0" r="25" fill="#ECB5C9" stroke="#da7298" stroke-width="2px"/><text text-anchor="middle" pointer-events="none" font-family="sans-serif" dy="1.5625" font-size="25" fill="#604A0E"/><text text-anchor="middle" pointer-events="none" y="5" font-size="10px" fill="#604A0E" font-family="sans-serif"> 11/25/20…</text></g><g class="node" transform="translate(144.26484733831694,-240.17632382812945)"><circle class="outline" cx="0" cy="0" r="25" fill="#FFC454" stroke="#d7a013" stroke-width="2px"/><text text-anchor="middle" pointer-events="none" font-family="sans-serif" dy="1.5625" font-size="25" fill="#604A0E"/><text text-anchor="middle" pointer-events="none" y="5" font-size="10px" fill="#604A0E" font-family="sans-serif"> economy</text></g><g class="node" transform="translate(41.26791640013647,171.48558169276785)"><circle class="outline" cx="0" cy="0" r="25" fill="#ECB5C9" stroke="#da7298" stroke-width="2px"/><text text-anchor="middle" pointer-events="none" font-family="sans-serif" dy="1.5625" font-size="25" fill="#604A0E"/><text text-anchor="middle" pointer-events="none" y="5" font-size="10px" fill="#604A0E" font-family="sans-serif"> 11/29/20…</text></g><g class="node" transform="translate(-81.14394415372423,232.90598529276338)"><circle class="outline" cx="0" cy="0" r="25" fill="#FFC454" stroke="#d7a013" stroke-width="2px"/><text text-anchor="middle" pointer-events="none" font-family="sans-serif" dy="1.5625" font-size="25" fill="#604A0E"/><text text-anchor="middle" pointer-events="none" y="5" font-size="10px" fill="#604A0E" font-family="sans-serif"> economy</text></g><g class="node" transform="translate(99.52931051874856,154.24615506178802)"><circle class="outline" cx="0" cy="0" r="25" fill="#ECB5C9" stroke="#da7298" stroke-width="2px"/><text text-anchor="middle" pointer-events="none" font-family="sans-serif" dy="1.5625" font-size="25" fill="#604A0E"/><text text-anchor="middle" pointer-events="none" y="5" font-size="10px" fill="#604A0E" font-family="sans-serif"> 11/30/20…</text></g><g class="node" transform="translate(28.0687036007209,269.01922661667925)"><circle class="outline" cx="0" cy="0" r="25" fill="#FFC454" stroke="#d7a013" stroke-width="2px"/><text text-anchor="middle" pointer-events="none" font-family="sans-serif" dy="1.5625" font-size="25" fill="#604A0E"/><text text-anchor="middle" pointer-events="none" y="5" font-size="10px" fill="#604A0E" font-family="sans-serif"> economy</text></g><g class="node" transform="translate(185.8006908505369,368.5302876328734)"><circle class="outline" cx="0" cy="0" r="25" fill="#ECB5C9" stroke="#da7298" stroke-width="2px"/><text text-anchor="middle" pointer-events="none" font-family="sans-serif" dy="1.5625" font-size="25" fill="#604A0E"/><text text-anchor="middle" pointer-events="none" y="5" font-size="10px" fill="#604A0E" font-family="sans-serif"> 11/29/20…</text></g><g class="node" transform="translate(93.89682566965347,452.24084521853393)"><circle class="outline" cx="0" cy="0" r="25" fill="#FFC454" stroke="#d7a013" stroke-width="2px"/><text text-anchor="middle" pointer-events="none" font-family="sans-serif" dy="1.5625" font-size="25" fill="#604A0E"/><text text-anchor="middle" pointer-events="none" y="5" font-size="10px" fill="#604A0E" font-family="sans-serif"> economy</text></g></g></svg>