<svg xmlns="http://www.w3.org/2000/svg" width="237.9903106689453" height="246.68594360351562" viewBox="-10.009994506835938 -11.683773040771484 237.9903106689453 246.68594360351562"><title>Neo4j Graph Visualization</title><desc>Created using Neo4j (http://www.neo4j.com/)</desc><g class="layer relationships"><g class="relationship" transform="translate(197.55615077755593 206.00215364760393) rotate(227.70193730454116)"><path class="outline" fill="#A5ABB6" stroke="none" d="M 25 0.5 L 27.642900757576314 0.5 L 27.642900757576314 -0.5 L 25 -0.5 Z M 73.20540075757631 0.5 L 75.84830151515263 0.5 L 75.84830151515263 3.5 L 82.84830151515263 0 L 75.84830151515263 -3.5 L 75.84830151515263 -0.5 L 73.20540075757631 -0.5 Z"/><text text-anchor="middle" pointer-events="none" font-size="8px" fill="#000000" x="50.424150757576314" y="3" transform="rotate(180 50.424150757576314 0)" font-family="sans-serif">ACTED_IN</text></g><g class="relationship" transform="translate(198.98033308772878 40.92041064897449) rotate(490.9405506065099)"><path class="outline" fill="#A5ABB6" stroke="none" d="M 25 0.5 L 30.187159446184125 0.5 L 30.187159446184125 -0.5 L 25 -0.5 Z M 75.74965944618413 0.5 L 80.93681889236825 0.5 L 80.93681889236825 3.5 L 87.93681889236825 0 L 80.93681889236825 -3.5 L 80.93681889236825 -0.5 L 75.74965944618413 -0.5 Z"/><text text-anchor="middle" pointer-events="none" font-size="8px" fill="#000000" x="52.968409446184125" y="3" transform="rotate(180 52.968409446184125 0)" font-family="sans-serif">ACTED_IN</text></g><g class="relationship" transform="translate(93.96666322731409 17.316226674712624) rotate(434.10801540488023)"><path class="outline" fill="#A5ABB6" stroke="none" d="M 25 0.5 L 30.34061667024949 0.5 L 30.34061667024949 -0.5 L 25 -0.5 Z M 75.90311667024949 0.5 L 81.24373334049898 0.5 L 81.24373334049898 3.5 L 88.24373334049898 0 L 81.24373334049898 -3.5 L 81.24373334049898 -0.5 L 75.90311667024949 -0.5 Z"/><text text-anchor="middle" pointer-events="none" font-size="8px" fill="#000000" x="53.12186667024949" y="3" font-family="sans-serif">ACTED_IN</text></g><g class="relationship" transform="translate(18.990005372302704 86.30878607094272) rotate(380.6405328226348)"><path class="outline" fill="#A5ABB6" stroke="none" d="M 25 0.5 L 30.346452770078045 0.5 L 30.346452770078045 -0.5 L 25 -0.5 Z M 75.90895277007805 0.5 L 81.25540554015609 0.5 L 81.25540554015609 3.5 L 88.25540554015609 0 L 81.25540554015609 -3.5 L 81.25540554015609 -0.5 L 75.90895277007805 -0.5 Z"/><text text-anchor="middle" pointer-events="none" font-size="8px" fill="#000000" x="53.127702770078045" y="3" font-family="sans-serif">ACTED_IN</text></g><g class="relationship" transform="translate(33.64730207938717 192.75123134902535) rotate(323.9320599061038)"><path class="outline" fill="#A5ABB6" stroke="none" d="M 25 0.5 L 30.2114461854838 0.5 L 30.2114461854838 -0.5 L 25 -0.5 Z M 75.7739461854838 0.5 L 80.9853923709676 0.5 L 80.9853923709676 3.5 L 87.9853923709676 0 L 80.9853923709676 -3.5 L 80.9853923709676 -0.5 L 75.7739461854838 -0.5 Z"/><text text-anchor="middle" pointer-events="none" font-size="8px" fill="#000000" x="52.9926961854838" y="3" font-family="sans-serif">ACTED_IN</text></g></g><g class="layer nodes"><g class="node" transform="translate(124.97559148009653,126.23174214201339)"><circle class="outline" cx="0" cy="0" r="25" fill="#57C7E3" stroke="#23b3d7" stroke-width="2px"/><text text-anchor="middle" pointer-events="none" font-family="sans-serif" dy="1.5625" font-size="25" fill="#FFFFFF"/><text text-anchor="middle" pointer-events="none" font-family="sans-serif" dy="1.5625" font-size="25" fill="#FFFFFF"/><text text-anchor="middle" pointer-events="none" y="0" font-size="10px" fill="#FFFFFF" font-family="sans-serif"> The</text><text text-anchor="middle" pointer-events="none" y="10" font-size="10px" fill="#FFFFFF" font-family="sans-serif"> Matrix</text></g><g class="node" transform="translate(197.55615077755593,206.00215364760393)"><circle class="outline" cx="0" cy="0" r="25" fill="#F79767" stroke="#f36924" stroke-width="2px"/><text text-anchor="middle" pointer-events="none" font-family="sans-serif" dy="1.5625" font-size="25" fill="#FFFFFF"/><text text-anchor="middle" pointer-events="none" font-family="sans-serif" dy="1.5625" font-size="25" fill="#FFFFFF"/><text text-anchor="middle" pointer-events="none" y="0" font-size="10px" fill="#FFFFFF" font-family="sans-serif"> Emil</text><text text-anchor="middle" pointer-events="none" y="10" font-size="10px" fill="#FFFFFF" font-family="sans-serif"> Eifrem</text></g><g class="node" transform="translate(198.98033308772878,40.92041064897449)"><circle class="outline" cx="0" cy="0" r="25" fill="#F79767" stroke="#f36924" stroke-width="2px"/><text text-anchor="middle" pointer-events="none" font-family="sans-serif" dy="1.5625" font-size="25" fill="#FFFFFF"/><text text-anchor="middle" pointer-events="none" font-family="sans-serif" dy="1.5625" font-size="25" fill="#FFFFFF"/><text text-anchor="middle" pointer-events="none" y="0" font-size="10px" fill="#FFFFFF" font-family="sans-serif"> Hugo</text><text text-anchor="middle" pointer-events="none" y="10" font-size="10px" fill="#FFFFFF" font-family="sans-serif"> Weaving</text></g><g class="node" transform="translate(93.96666322731409,17.316226674712624)"><circle class="outline" cx="0" cy="0" r="25" fill="#F79767" stroke="#f36924" stroke-width="2px"/><text text-anchor="middle" pointer-events="none" font-family="sans-serif" dy="1.5625" font-size="25" fill="#FFFFFF"/><text text-anchor="middle" pointer-events="none" font-family="sans-serif" dy="1.5625" font-size="25" fill="#FFFFFF"/><text text-anchor="middle" pointer-events="none" y="0" font-size="10px" fill="#FFFFFF" font-family="sans-serif"> Laurence</text><text text-anchor="middle" pointer-events="none" y="10" font-size="10px" fill="#FFFFFF" font-family="sans-serif"> Fishbur…</text></g><g class="node" transform="translate(18.990005372302704,86.30878607094272)"><circle class="outline" cx="0" cy="0" r="25" fill="#F79767" stroke="#f36924" stroke-width="2px"/><text text-anchor="middle" pointer-events="none" font-family="sans-serif" dy="1.5625" font-size="25" fill="#FFFFFF"/><text text-anchor="middle" pointer-events="none" y="5" font-size="10px" fill="#FFFFFF" font-family="sans-serif"> Carrie-A…</text></g><g class="node" transform="translate(33.64730207938717,192.75123134902535)"><circle class="outline" cx="0" cy="0" r="25" fill="#F79767" stroke="#f36924" stroke-width="2px"/><text text-anchor="middle" pointer-events="none" font-family="sans-serif" dy="1.5625" font-size="25" fill="#FFFFFF"/><text text-anchor="middle" pointer-events="none" font-family="sans-serif" dy="1.5625" font-size="25" fill="#FFFFFF"/><text text-anchor="middle" pointer-events="none" y="0" font-size="10px" fill="#FFFFFF" font-family="sans-serif"> Keanu</text><text text-anchor="middle" pointer-events="none" y="10" font-size="10px" fill="#FFFFFF" font-family="sans-serif"> Reeves</text></g></g></svg>