<svg xmlns="http://www.w3.org/2000/svg" width="344.08966064453125" height="213.76290893554688" viewBox="-1.1699581146240234 -74.35833740234375 344.08966064453125 213.76290893554688"><title>Neo4j Graph Visualization</title><desc>Created using Neo4j (http://www.neo4j.com/)</desc><g class="layer relationships"><g class="relationship" transform="translate(184.00745836738847 78.11146618446033) rotate(315.0656629243124)"><path class="outline" fill="#A5ABB6" stroke="none" d="M 25 0.5 L 61.125316216603395 0.5 L 61.125316216603395 -0.5 L 25 -0.5 Z M 106.6878162166034 0.5 L 142.8131324332068 0.5 L 142.8131324332068 3.5 L 149.8131324332068 0 L 142.8131324332068 -3.5 L 142.8131324332068 -0.5 L 106.6878162166034 -0.5 Z"/><text text-anchor="middle" pointer-events="none" font-size="8px" fill="#000000" x="83.9065662166034" y="3" font-family="sans-serif">ACTED_IN</text></g><g class="relationship" transform="translate(184.00745836738847 78.11146618446033) rotate(191.01822396460244)"><path class="outline" fill="#A5ABB6" stroke="none" d="M 25 0.5 L 53.27394336288471 0.5 L 53.27394336288471 -0.5 L 25 -0.5 Z M 98.83644336288471 0.5 L 127.11038672576942 0.5 L 127.11038672576942 3.5 L 134.11038672576942 0 L 127.11038672576942 -3.5 L 127.11038672576942 -0.5 L 98.83644336288471 -0.5 Z"/><text text-anchor="middle" pointer-events="none" font-size="8px" fill="#000000" x="76.05519336288471" y="3" transform="rotate(180 76.05519336288471 0)" font-family="sans-serif">ACTED_IN</text></g><g class="relationship" transform="translate(184.00745836738847 78.11146618446033) rotate(373.9594395178823)"><path class="outline" fill="#A5ABB6" stroke="none" d="M 25 0.5 L 40.651624068003784 0.5 L 40.651624068003784 -0.5 L 25 -0.5 Z M 86.21412406800378 0.5 L 101.86574813600757 0.5 L 101.86574813600757 3.5 L 108.86574813600757 0 L 101.86574813600757 -3.5 L 101.86574813600757 -0.5 L 86.21412406800378 -0.5 Z"/><text text-anchor="middle" pointer-events="none" font-size="8px" fill="#000000" x="63.432874068003784" y="3" font-family="sans-serif">ACTED_IN</text></g><g class="relationship" transform="translate(182.05684111029677 18.174475450669036) rotate(333.1871887827424)"><path class="outline" fill="#A5ABB6" stroke="none" d="M 25 0.5 L 44.14220428734201 0.5 L 44.14220428734201 -0.5 L 25 -0.5 Z M 89.70470428734201 0.5 L 108.84690857468402 0.5 L 108.84690857468402 3.5 L 115.84690857468402 0 L 108.84690857468402 -3.5 L 108.84690857468402 -0.5 L 89.70470428734201 -0.5 Z"/><text text-anchor="middle" pointer-events="none" font-size="8px" fill="#000000" x="66.92345428734201" y="3" font-family="sans-serif">ACTED_IN</text></g><g class="relationship" transform="translate(182.05684111029677 18.174475450669036) rotate(529.1615473815173)"><path class="outline" fill="#A5ABB6" stroke="none" d="M 25 0.5 L 52.23273918151608 0.5 L 52.23273918151608 -0.5 L 25 -0.5 Z M 97.79523918151608 0.5 L 125.02797836303216 0.5 L 125.02797836303216 3.5 L 132.02797836303216 0 L 125.02797836303216 -3.5 L 125.02797836303216 -0.5 L 97.79523918151608 -0.5 Z"/><text text-anchor="middle" pointer-events="none" font-size="8px" fill="#000000" x="75.01398918151608" y="3" transform="rotate(180 75.01398918151608 0)" font-family="sans-serif">ACTED_IN</text></g><g class="relationship" transform="translate(182.05684111029677 18.174475450669036) rotate(394.97045697069507)"><path class="outline" fill="#A5ABB6" stroke="none" d="M 25 0.5 L 54.177134544141026 0.5 L 54.177134544141026 -0.5 L 25 -0.5 Z M 99.73963454414103 0.5 L 128.91676908828205 0.5 L 128.91676908828205 3.5 L 135.91676908828205 0 L 128.91676908828205 -3.5 L 128.91676908828205 -0.5 L 99.73963454414103 -0.5 Z"/><text text-anchor="middle" pointer-events="none" font-size="8px" fill="#000000" x="76.95838454414103" y="3" font-family="sans-serif">ACTED_IN</text></g></g><g class="layer nodes"><g class="node" transform="translate(184.00745836738847,78.11146618446033)"><circle class="outline" cx="0" cy="0" r="25" fill="#F79767" stroke="#f36924" stroke-width="2px"/><text text-anchor="middle" pointer-events="none" font-family="sans-serif" dy="1.5625" font-size="25" fill="#FFFFFF"/><text text-anchor="middle" pointer-events="none" font-family="sans-serif" dy="1.5625" font-size="25" fill="#FFFFFF"/><text text-anchor="middle" pointer-events="none" y="0" font-size="10px" fill="#FFFFFF" font-family="sans-serif"> Hugo</text><text text-anchor="middle" pointer-events="none" y="10" font-size="10px" fill="#FFFFFF" font-family="sans-serif"> Weaving</text></g><g class="node" transform="translate(307.7605916135901,-45.358340986595664)"><circle class="outline" cx="0" cy="0" r="25" fill="#57C7E3" stroke="#23b3d7" stroke-width="2px"/><text text-anchor="middle" pointer-events="none" font-family="sans-serif" dy="1.5625" font-size="25" fill="#FFFFFF"/><text text-anchor="middle" pointer-events="none" font-family="sans-serif" dy="1.5625" font-size="25" fill="#FFFFFF"/><text text-anchor="middle" pointer-events="none" font-family="sans-serif" dy="1.5625" font-size="25" fill="#FFFFFF"/><text text-anchor="middle" pointer-events="none" y="-5" font-size="10px" fill="#FFFFFF" font-family="sans-serif"> The</text><text text-anchor="middle" pointer-events="none" y="5" font-size="10px" fill="#FFFFFF" font-family="sans-serif"> Matrix</text><text text-anchor="middle" pointer-events="none" y="15" font-size="10px" fill="#FFFFFF" font-family="sans-serif"> Revol…</text></g><g class="node" transform="translate(182.05684111029677,18.174475450669036)"><circle class="outline" cx="0" cy="0" r="25" fill="#F79767" stroke="#f36924" stroke-width="2px"/><text text-anchor="middle" pointer-events="none" font-family="sans-serif" dy="1.5625" font-size="25" fill="#FFFFFF"/><text text-anchor="middle" pointer-events="none" font-family="sans-serif" dy="1.5625" font-size="25" fill="#FFFFFF"/><text text-anchor="middle" pointer-events="none" y="0" font-size="10px" fill="#FFFFFF" font-family="sans-serif"> Keanu</text><text text-anchor="middle" pointer-events="none" y="10" font-size="10px" fill="#FFFFFF" font-family="sans-serif"> Reeves</text></g><g class="node" transform="translate(27.83004194132451,47.702096534569314)"><circle class="outline" cx="0" cy="0" r="25" fill="#57C7E3" stroke="#23b3d7" stroke-width="2px"/><text text-anchor="middle" pointer-events="none" font-family="sans-serif" dy="1.5625" font-size="25" fill="#FFFFFF"/><text text-anchor="middle" pointer-events="none" font-family="sans-serif" dy="1.5625" font-size="25" fill="#FFFFFF"/><text text-anchor="middle" pointer-events="none" font-family="sans-serif" dy="1.5625" font-size="25" fill="#FFFFFF"/><text text-anchor="middle" pointer-events="none" y="-5" font-size="10px" fill="#FFFFFF" font-family="sans-serif"> The</text><text text-anchor="middle" pointer-events="none" y="5" font-size="10px" fill="#FFFFFF" font-family="sans-serif"> Matrix</text><text text-anchor="middle" pointer-events="none" y="15" font-size="10px" fill="#FFFFFF" font-family="sans-serif"> Reloa…</text></g><g class="node" transform="translate(313.9197149629513,110.40456312887964)"><circle class="outline" cx="0" cy="0" r="25" fill="#57C7E3" stroke="#23b3d7" stroke-width="2px"/><text text-anchor="middle" pointer-events="none" font-family="sans-serif" dy="1.5625" font-size="25" fill="#FFFFFF"/><text text-anchor="middle" pointer-events="none" font-family="sans-serif" dy="1.5625" font-size="25" fill="#FFFFFF"/><text text-anchor="middle" pointer-events="none" y="0" font-size="10px" fill="#FFFFFF" font-family="sans-serif"> The</text><text text-anchor="middle" pointer-events="none" y="10" font-size="10px" fill="#FFFFFF" font-family="sans-serif"> Matrix</text></g></g></svg>