<svg xmlns="http://www.w3.org/2000/svg" width="658.7371215820312" height="345.908935546875" viewBox="-120.91024017333984 -94.46379089355469 658.7371215820312 345.908935546875"><title>Neo4j Graph Visualization</title><desc>Created using Neo4j (http://www.neo4j.com/)</desc><g class="layer relationships"><g class="relationship" transform="translate(114.62304466154697 -56.358580855609446) rotate(424.25308499783)"><path class="outline" fill="#A5ABB6" stroke="none" d="M 25 0.5 L 110.88550663048568 0.5 L 110.88550663048568 -0.5 L 25 -0.5 Z M 156.44800663048568 0.5 L 242.33351326097136 0.5 L 242.33351326097136 3.5 L 249.33351326097136 0 L 242.33351326097136 -3.5 L 242.33351326097136 -0.5 L 156.44800663048568 -0.5 Z"/><text text-anchor="middle" pointer-events="none" font-size="8px" fill="#000000" x="133.66675663048568" y="3" font-family="sans-serif">ACTED_IN</text></g><g class="relationship" transform="translate(114.62304466154697 -56.358580855609446) rotate(363.45944765940203)"><path class="outline" fill="#A5ABB6" stroke="none" d="M 25 0.5 L 41.396802274419514 0.5 L 41.396802274419514 -0.5 L 25 -0.5 Z M 86.95930227441951 0.5 L 103.35610454883903 0.5 L 103.35610454883903 3.5 L 110.35610454883903 0 L 103.35610454883903 -3.5 L 103.35610454883903 -0.5 L 86.95930227441951 -0.5 Z"/><text text-anchor="middle" pointer-events="none" font-size="8px" fill="#000000" x="64.17805227441951" y="3" font-family="sans-serif">ACTED_IN</text></g><g class="relationship" transform="translate(114.62304466154697 -56.358580855609446) rotate(472.7176402793423)"><path class="outline" fill="#A5ABB6" stroke="none" d="M 25 0.5 L 33.51997489171302 0.5 L 33.51997489171302 -0.5 L 25 -0.5 Z M 79.08247489171302 0.5 L 87.60244978342604 0.5 L 87.60244978342604 3.5 L 94.60244978342604 0 L 87.60244978342604 -3.5 L 87.60244978342604 -0.5 L 79.08247489171302 -0.5 Z"/><text text-anchor="middle" pointer-events="none" font-size="8px" fill="#000000" x="56.30122489171302" y="3" transform="rotate(180 56.30122489171302 0)" font-family="sans-serif">ACTED_IN</text></g><g class="relationship" transform="translate(114.62304466154697 -56.358580855609446) rotate(388.6167876481857)"><path class="outline" fill="#A5ABB6" stroke="none" d="M 25 0.5 L 78.18909393662935 0.5 L 78.18909393662935 -0.5 L 25 -0.5 Z M 123.75159393662935 0.5 L 176.9406878732587 0.5 L 176.9406878732587 3.5 L 183.9406878732587 0 L 176.9406878732587 -3.5 L 176.9406878732587 -0.5 L 123.75159393662935 -0.5 Z"/><text text-anchor="middle" pointer-events="none" font-size="8px" fill="#000000" x="100.97034393662935" y="3" font-family="sans-serif">ACTED_IN</text></g><g class="relationship" transform="translate(114.62304466154697 -56.358580855609446) rotate(505.7617835938888)"><path class="outline" fill="#A5ABB6" stroke="none" d="M 25 0.5 L 98.63220964069474 0.5 L 98.63220964069474 -0.5 L 25 -0.5 Z M 144.19470964069473 0.5 L 217.82691928138948 0.5 L 217.82691928138948 3.5 L 224.82691928138948 0 L 217.82691928138948 -3.5 L 217.82691928138948 -0.5 L 144.19470964069473 -0.5 Z"/><text text-anchor="middle" pointer-events="none" font-size="8px" fill="#000000" x="121.41345964069474" y="3" transform="rotate(180 121.41345964069474 0)" font-family="sans-serif">ACTED_IN</text></g><g class="relationship" transform="translate(362.0047253997217 222.44513735598926) rotate(193.8900214032555)"><path class="outline" fill="#A5ABB6" stroke="none" d="M 25 0.5 L 39.09176940872264 0.5 L 39.09176940872264 -0.5 L 25 -0.5 Z M 85.98239440872264 0.5 L 100.07416381744528 0.5 L 100.07416381744528 3.5 L 107.07416381744528 0 L 100.07416381744528 -3.5 L 100.07416381744528 -0.5 L 85.98239440872264 -0.5 Z"/><text text-anchor="middle" pointer-events="none" font-size="8px" fill="#000000" x="62.53708190872264" y="3" transform="rotate(180 62.53708190872264 0)" font-family="sans-serif">DIRECTED</text></g><g class="relationship" transform="translate(508.8268731283412 113.62553468703182) rotate(211.98668852036747)"><path class="outline" fill="#A5ABB6" stroke="none" d="M 24.018736134675446,6.953439040707552 L 24.277555179777966,5.987513214418485 A 493.80615809934386 493.80615809934386 0 0 0 123.37050655461671,21.978037547855138 L 123.3123592705879,22.97634556312903 A 494.80615809934386 494.80615809934386 0 0 1 24.018736134675446,6.953439040707552 Z M 175.12141779838973,23.276965310515948 L 175.0748593149584,22.27804974470439 A 493.80615809934386 493.80615809934386 0 0 0 274.3467006532438,7.4385282584608525 L 273.6039231169791,4.5319354882880845 L 281.2525467063577,6.1898128022054415 L 275.33707070159664,11.313985285357877 L 274.594293165332,8.407392515185109 A 494.80615809934386 494.80615809934386 0 0 1 175.12141779838973,23.276965310515948"/><text text-anchor="middle" pointer-events="none" font-size="8px" fill="#000000" x="149.21585236957148" y="26.305228964722858" transform="rotate(180 149.21585236957148 23.305228964722858)" font-family="sans-serif">PRODUCED</text></g><g class="relationship" transform="translate(508.8268731283412 113.62553468703182) rotate(211.98668852036747)"><path class="outline" fill="#A5ABB6" stroke="none" d="M 24.018736134675446,-6.953439040707552 L 24.277555179777966,-5.987513214418485 A 493.80615809934386 493.80615809934386 0 0 1 131.35620318551386,-22.378327922261292 L 131.31422762494356,-23.377446560018996 A 494.80615809934386 494.80615809934386 0 0 0 24.018736134675446,-6.953439040707552 Z M 167.1154336629916,-23.585181458531622 L 167.08505522098525,-22.585642989906603 A 493.80615809934386 493.80615809934386 0 0 1 274.3467006532438,-7.4385282584608525 L 273.6039231169791,-4.5319354882880845 L 281.2525467063577,-6.1898128022054415 L 275.33707070159664,-11.313985285357877 L 274.594293165332,-8.407392515185109 A 494.80615809934386 494.80615809934386 0 0 0 167.1154336629916,-23.585181458531622"/><text text-anchor="middle" pointer-events="none" font-size="8px" fill="#000000" x="149.21585236957148" y="-20.305228964722858" transform="rotate(180 149.21585236957148 -23.305228964722858)" font-family="sans-serif">WROTE</text></g><g class="relationship" transform="translate(508.8268731283412 113.62553468703182) rotate(524.3375826612967)"><path class="outline" fill="#A5ABB6" stroke="none" d="M 25 0.5 L 115.87485745876106 0.5 L 115.87485745876106 -0.5 L 25 -0.5 Z M 162.76548245876106 0.5 L 253.6403399175221 0.5 L 253.6403399175221 3.5 L 260.6403399175221 0 L 253.6403399175221 -3.5 L 253.6403399175221 -0.5 L 162.76548245876106 -0.5 Z"/><text text-anchor="middle" pointer-events="none" font-size="8px" fill="#000000" x="139.32016995876106" y="3" transform="rotate(180 139.32016995876106 0)" font-family="sans-serif">DIRECTED</text></g><g class="relationship" transform="translate(508.8268731283412 113.62553468703182) rotate(187.7149521156715)"><path class="outline" fill="#A5ABB6" stroke="none" d="M 25 0.5 L 195.2626217997668 0.5 L 195.2626217997668 -0.5 L 25 -0.5 Z M 242.1532467997668 0.5 L 412.4158685995336 0.5 L 412.4158685995336 3.5 L 419.4158685995336 0 L 412.4158685995336 -3.5 L 412.4158685995336 -0.5 L 242.1532467997668 -0.5 Z"/><text text-anchor="middle" pointer-events="none" font-size="8px" fill="#000000" x="218.7079342997668" y="3" transform="rotate(180 218.7079342997668 0)" font-family="sans-serif">DIRECTED</text></g><g class="relationship" transform="translate(508.8268731283412 113.62553468703182) rotate(198.34926025439535)"><path class="outline" fill="#A5ABB6" stroke="none" d="M 25 0.5 L 84.09384176324706 0.5 L 84.09384176324706 -0.5 L 25 -0.5 Z M 130.98446676324704 0.5 L 190.0783085264941 0.5 L 190.0783085264941 3.5 L 197.0783085264941 0 L 190.0783085264941 -3.5 L 190.0783085264941 -0.5 L 130.98446676324704 -0.5 Z"/><text text-anchor="middle" pointer-events="none" font-size="8px" fill="#000000" x="107.53915426324706" y="3" transform="rotate(180 107.53915426324706 0)" font-family="sans-serif">DIRECTED</text></g><g class="relationship" transform="translate(508.8268731283412 113.62553468703182) rotate(182.80397918487563)"><path class="outline" fill="#A5ABB6" stroke="none" d="M 25 0.5 L 273.7832929159325 0.5 L 273.7832929159325 -0.5 L 25 -0.5 Z M 320.6739179159325 0.5 L 569.457210831865 0.5 L 569.457210831865 3.5 L 576.457210831865 0 L 569.457210831865 -3.5 L 569.457210831865 -0.5 L 320.6739179159325 -0.5 Z"/><text text-anchor="middle" pointer-events="none" font-size="8px" fill="#000000" x="297.2286054159325" y="3" transform="rotate(180 297.2286054159325 0)" font-family="sans-serif">DIRECTED</text></g><g class="relationship" transform="translate(91.4255093045777 203.87498408246233) rotate(302.1303866603197)"><path class="outline" fill="#A5ABB6" stroke="none" d="M 24.018736134675446,6.953439040707552 L 24.277555179777966,5.987513214418485 A 478.6338417244635 478.6338417244635 0 0 0 119.46216301117222,21.435635188630556 L 119.40221124107987,22.43383646355602 A 479.6338417244635 479.6338417244635 0 0 1 24.018736134675446,6.953439040707552 Z M 171.21135785326035,22.742178672883142 L 171.16329150180835,21.743334527954573 A 478.6338417244635 478.6338417244635 0 0 0 266.52502915086853,7.429249398326318 L 265.7831180502509,4.522435348755838 L 273.4312471166359,6.182592505146926 L 267.51424395169204,11.305001464420291 L 266.7723328510744,8.398187414849811 A 479.6338417244635 479.6338417244635 0 0 1 171.21135785326035,22.742178672883142"/><text text-anchor="middle" pointer-events="none" font-size="8px" fill="#000000" x="145.30559381248895" y="25.788080557925923" font-family="sans-serif">PRODUCED</text></g><g class="relationship" transform="translate(91.4255093045777 203.87498408246233) rotate(302.1303866603197)"><path class="outline" fill="#A5ABB6" stroke="none" d="M 24.018736134675446,-6.953439040707552 L 24.277555179777966,-5.987513214418485 A 478.6338417244635 478.6338417244635 0 0 1 127.44696743631022,-21.848299512561027 L 127.40369815652481,-22.84736295870789 A 479.6338417244635 479.6338417244635 0 0 0 24.018736134675446,-6.953439040707552 Z M 163.205515716277,-23.06043752654307 L 163.17414093543687,-22.060929836163837 A 478.6338417244635 478.6338417244635 0 0 1 266.52502915086853,-7.429249398326318 L 265.7831180502509,-4.522435348755838 L 273.4312471166359,-6.182592505146926 L 267.51424395169204,-11.305001464420291 L 266.7723328510744,-8.398187414849811 A 479.6338417244635 479.6338417244635 0 0 0 163.205515716277,-23.06043752654307"/><text text-anchor="middle" pointer-events="none" font-size="8px" fill="#000000" x="145.3055938124889" y="-19.788080557925923" font-family="sans-serif">WROTE</text></g><g class="relationship" transform="translate(91.4255093045777 203.87498408246233) rotate(354.7285562336888)"><path class="outline" fill="#A5ABB6" stroke="none" d="M 25 0.5 L 44.54059148012725 0.5 L 44.54059148012725 -0.5 L 25 -0.5 Z M 91.43121648012725 0.5 L 110.9718079602545 0.5 L 110.9718079602545 3.5 L 117.9718079602545 0 L 110.9718079602545 -3.5 L 110.9718079602545 -0.5 L 91.43121648012725 -0.5 Z"/><text text-anchor="middle" pointer-events="none" font-size="8px" fill="#000000" x="67.98590398012725" y="3" font-family="sans-serif">DIRECTED</text></g><g class="relationship" transform="translate(91.4255093045777 203.87498408246233) rotate(261.2804717575181)"><path class="outline" fill="#A5ABB6" stroke="none" d="M 25 0.5 L 48.88610871948511 0.5 L 48.88610871948511 -0.5 L 25 -0.5 Z M 95.77673371948511 0.5 L 119.66284243897022 0.5 L 119.66284243897022 3.5 L 126.66284243897022 0 L 119.66284243897022 -3.5 L 119.66284243897022 -0.5 L 95.77673371948511 -0.5 Z"/><text text-anchor="middle" pointer-events="none" font-size="8px" fill="#000000" x="72.33142121948511" y="3" transform="rotate(180 72.33142121948511 0)" font-family="sans-serif">DIRECTED</text></g><g class="relationship" transform="translate(91.4255093045777 203.87498408246233) rotate(322.2181992893431)"><path class="outline" fill="#A5ABB6" stroke="none" d="M 25 0.5 L 103.76556195306748 0.5 L 103.76556195306748 -0.5 L 25 -0.5 Z M 150.65618695306748 0.5 L 229.42174890613495 0.5 L 229.42174890613495 3.5 L 236.42174890613495 0 L 229.42174890613495 -3.5 L 229.42174890613495 -0.5 L 150.65618695306748 -0.5 Z"/><text text-anchor="middle" pointer-events="none" font-size="8px" fill="#000000" x="127.21087445306748" y="3" font-family="sans-serif">DIRECTED</text></g><g class="relationship" transform="translate(91.4255093045777 203.87498408246233) rotate(213.1344513564942)"><path class="outline" fill="#A5ABB6" stroke="none" d="M 25 0.5 L 82.52321710226741 0.5 L 82.52321710226741 -0.5 L 25 -0.5 Z M 129.4138421022674 0.5 L 186.93705920453482 0.5 L 186.93705920453482 3.5 L 193.93705920453482 0 L 186.93705920453482 -3.5 L 186.93705920453482 -0.5 L 129.4138421022674 -0.5 Z"/><text text-anchor="middle" pointer-events="none" font-size="8px" fill="#000000" x="105.96852960226741" y="3" transform="rotate(180 105.96852960226741 0)" font-family="sans-serif">DIRECTED</text></g><g class="relationship" transform="translate(342.7886404318688 -65.46379133003467) rotate(529.4845586049286)"><path class="outline" fill="#A5ABB6" stroke="none" d="M 25 0.5 L 27.266181745725753 0.5 L 27.266181745725753 -0.5 L 25 -0.5 Z M 60.37946299572575 0.5 L 62.645644741451505 0.5 L 62.645644741451505 3.5 L 69.6456447414515 0 L 62.645644741451505 -3.5 L 62.645644741451505 -0.5 L 60.37946299572575 -0.5 Z"/><text text-anchor="middle" pointer-events="none" font-size="8px" fill="#000000" x="43.82282237072575" y="3" transform="rotate(180 43.82282237072575 0)" font-family="sans-serif">DIRE…</text></g></g><g class="layer nodes"><g class="node" transform="translate(114.62304466154697,-56.358580855609446)"><circle class="outline" cx="0" cy="0" r="25" fill="#F79767" stroke="#f36924" stroke-width="2px"/><text text-anchor="middle" pointer-events="none" font-family="sans-serif" dy="1.5625" font-size="25" fill="#FFFFFF"/><text text-anchor="middle" pointer-events="none" font-family="sans-serif" dy="1.5625" font-size="25" fill="#FFFFFF"/><text text-anchor="middle" pointer-events="none" y="0" font-size="10px" fill="#FFFFFF" font-family="sans-serif"> Hugo</text><text text-anchor="middle" pointer-events="none" y="10" font-size="10px" fill="#FFFFFF" font-family="sans-serif"> Weaving</text></g><g class="node" transform="translate(233.79263402172967,190.7395483761453)"><circle class="outline" cx="0" cy="0" r="25" fill="#57C7E3" stroke="#23b3d7" stroke-width="2px"/><text text-anchor="middle" pointer-events="none" font-family="sans-serif" dy="1.5625" font-size="25" fill="#FFFFFF"/><text text-anchor="middle" pointer-events="none" font-family="sans-serif" dy="1.5625" font-size="25" fill="#FFFFFF"/><text text-anchor="middle" pointer-events="none" y="0" font-size="10px" fill="#FFFFFF" font-family="sans-serif"> Cloud</text><text text-anchor="middle" pointer-events="none" y="10" font-size="10px" fill="#FFFFFF" font-family="sans-serif"> Atlas</text></g><g class="node" transform="translate(362.0047253997217,222.44513735598926)"><circle class="outline" cx="0" cy="0" r="25" fill="#F79767" stroke="#f36924" stroke-width="2px"/><text text-anchor="middle" pointer-events="none" font-family="sans-serif" dy="1.5625" font-size="25" fill="#FFFFFF"/><text text-anchor="middle" pointer-events="none" font-family="sans-serif" dy="1.5625" font-size="25" fill="#FFFFFF"/><text text-anchor="middle" pointer-events="none" y="0" font-size="10px" fill="#FFFFFF" font-family="sans-serif"> Tom</text><text text-anchor="middle" pointer-events="none" y="10" font-size="10px" fill="#FFFFFF" font-family="sans-serif"> Tykwer</text></g><g class="node" transform="translate(508.8268731283412,113.62553468703182)"><circle class="outline" cx="0" cy="0" r="25" fill="#F79767" stroke="#f36924" stroke-width="2px"/><text text-anchor="middle" pointer-events="none" font-family="sans-serif" dy="1.5625" font-size="25" fill="#FFFFFF"/><text text-anchor="middle" pointer-events="none" font-family="sans-serif" dy="1.5625" font-size="25" fill="#FFFFFF"/><text text-anchor="middle" pointer-events="none" y="0" font-size="10px" fill="#FFFFFF" font-family="sans-serif"> Lana</text><text text-anchor="middle" pointer-events="none" y="10" font-size="10px" fill="#FFFFFF" font-family="sans-serif"> Wacho…</text></g><g class="node" transform="translate(91.4255093045777,203.87498408246233)"><circle class="outline" cx="0" cy="0" r="25" fill="#F79767" stroke="#f36924" stroke-width="2px"/><text text-anchor="middle" pointer-events="none" font-family="sans-serif" dy="1.5625" font-size="25" fill="#FFFFFF"/><text text-anchor="middle" pointer-events="none" font-family="sans-serif" dy="1.5625" font-size="25" fill="#FFFFFF"/><text text-anchor="middle" pointer-events="none" y="0" font-size="10px" fill="#FFFFFF" font-family="sans-serif"> Lilly</text><text text-anchor="middle" pointer-events="none" y="10" font-size="10px" fill="#FFFFFF" font-family="sans-serif"> Wacho…</text></g><g class="node" transform="translate(249.7324974765339,-48.190912971135866)"><circle class="outline" cx="0" cy="0" r="25" fill="#57C7E3" stroke="#23b3d7" stroke-width="2px"/><text text-anchor="middle" pointer-events="none" font-family="sans-serif" dy="1.5625" font-size="25" fill="#FFFFFF"/><text text-anchor="middle" pointer-events="none" font-family="sans-serif" dy="1.5625" font-size="25" fill="#FFFFFF"/><text text-anchor="middle" pointer-events="none" y="0" font-size="10px" fill="#FFFFFF" font-family="sans-serif"> V for</text><text text-anchor="middle" pointer-events="none" y="10" font-size="10px" fill="#FFFFFF" font-family="sans-serif"> Vendetta</text></g><g class="node" transform="translate(342.7886404318688,-65.46379133003467)"><circle class="outline" cx="0" cy="0" r="25" fill="#F79767" stroke="#f36924" stroke-width="2px"/><text text-anchor="middle" pointer-events="none" font-family="sans-serif" dy="1.5625" font-size="25" fill="#FFFFFF"/><text text-anchor="middle" pointer-events="none" font-family="sans-serif" dy="1.5625" font-size="25" fill="#FFFFFF"/><text text-anchor="middle" pointer-events="none" y="0" font-size="10px" fill="#FFFFFF" font-family="sans-serif"> James</text><text text-anchor="middle" pointer-events="none" y="10" font-size="10px" fill="#FFFFFF" font-family="sans-serif"> Marshall</text></g><g class="node" transform="translate(68.43376788934657,53.96501909226215)"><circle class="outline" cx="0" cy="0" r="25" fill="#57C7E3" stroke="#23b3d7" stroke-width="2px"/><text text-anchor="middle" pointer-events="none" font-family="sans-serif" dy="1.5625" font-size="25" fill="#FFFFFF"/><text text-anchor="middle" pointer-events="none" font-family="sans-serif" dy="1.5625" font-size="25" fill="#FFFFFF"/><text text-anchor="middle" pointer-events="none" font-family="sans-serif" dy="1.5625" font-size="25" fill="#FFFFFF"/><text text-anchor="middle" pointer-events="none" y="-5" font-size="10px" fill="#FFFFFF" font-family="sans-serif"> The</text><text text-anchor="middle" pointer-events="none" y="5" font-size="10px" fill="#FFFFFF" font-family="sans-serif"> Matrix</text><text text-anchor="middle" pointer-events="none" y="15" font-size="10px" fill="#FFFFFF" font-family="sans-serif"> Revol…</text></g><g class="node" transform="translate(298.04009830674306,43.71337066461312)"><circle class="outline" cx="0" cy="0" r="25" fill="#57C7E3" stroke="#23b3d7" stroke-width="2px"/><text text-anchor="middle" pointer-events="none" font-family="sans-serif" dy="1.5625" font-size="25" fill="#FFFFFF"/><text text-anchor="middle" pointer-events="none" font-family="sans-serif" dy="1.5625" font-size="25" fill="#FFFFFF"/><text text-anchor="middle" pointer-events="none" font-family="sans-serif" dy="1.5625" font-size="25" fill="#FFFFFF"/><text text-anchor="middle" pointer-events="none" y="-5" font-size="10px" fill="#FFFFFF" font-family="sans-serif"> The</text><text text-anchor="middle" pointer-events="none" y="5" font-size="10px" fill="#FFFFFF" font-family="sans-serif"> Matrix</text><text text-anchor="middle" pointer-events="none" y="15" font-size="10px" fill="#FFFFFF" font-family="sans-serif"> Reloa…</text></g><g class="node" transform="translate(-91.91023843995046,84.20276720617677)"><circle class="outline" cx="0" cy="0" r="25" fill="#57C7E3" stroke="#23b3d7" stroke-width="2px"/><text text-anchor="middle" pointer-events="none" font-family="sans-serif" dy="1.5625" font-size="25" fill="#FFFFFF"/><text text-anchor="middle" pointer-events="none" font-family="sans-serif" dy="1.5625" font-size="25" fill="#FFFFFF"/><text text-anchor="middle" pointer-events="none" y="0" font-size="10px" fill="#FFFFFF" font-family="sans-serif"> The</text><text text-anchor="middle" pointer-events="none" y="10" font-size="10px" fill="#FFFFFF" font-family="sans-serif"> Matrix</text></g></g></svg>