<svg xmlns="http://www.w3.org/2000/svg" width="603.9049682617188" height="439.64349365234375" viewBox="-452.36962890625 -86.65574645996094 603.9049682617188 439.64349365234375"><title>Neo4j Graph Visualization</title><desc>Created using Neo4j (http://www.neo4j.com/)</desc><g class="layer relationships"><g class="relationship" transform="translate(-178.88203640600892 135.52999013007383) rotate(389.27123188575086)"><path class="outline" fill="#A5ABB6" stroke="none" d="M 25 0.5 L 54.89836534282118 0.5 L 54.89836534282118 -0.5 L 25 -0.5 Z M 100.46086534282118 0.5 L 130.35923068564236 0.5 L 130.35923068564236 3.5 L 137.35923068564236 0 L 130.35923068564236 -3.5 L 130.35923068564236 -0.5 L 100.46086534282118 -0.5 Z"/><text text-anchor="middle" pointer-events="none" font-size="8px" fill="#000000" x="77.67961534282118" y="3" font-family="sans-serif">ACTED_IN</text></g><g class="relationship" transform="translate(-178.88203640600892 135.52999013007383) rotate(336.05558394651393)"><path class="outline" fill="#A5ABB6" stroke="none" d="M 25 0.5 L 61.606954166413516 0.5 L 61.606954166413516 -0.5 L 25 -0.5 Z M 107.16945416641352 0.5 L 143.77640833282703 0.5 L 143.77640833282703 3.5 L 150.77640833282703 0 L 143.77640833282703 -3.5 L 143.77640833282703 -0.5 L 107.16945416641352 -0.5 Z"/><text text-anchor="middle" pointer-events="none" font-size="8px" fill="#000000" x="84.38820416641352" y="3" font-family="sans-serif">ACTED_IN</text></g><g class="relationship" transform="translate(-178.88203640600892 135.52999013007383) rotate(238.75632133275127)"><path class="outline" fill="#A5ABB6" stroke="none" d="M 25 0.5 L 27.49082350460357 0.5 L 27.49082350460357 -0.5 L 25 -0.5 Z M 46.82676100460357 0.5 L 49.31758450920714 0.5 L 49.31758450920714 3.5 L 56.31758450920714 0 L 49.31758450920714 -3.5 L 49.31758450920714 -0.5 L 46.82676100460357 -0.5 Z"/><text text-anchor="middle" pointer-events="none" font-size="8px" fill="#000000" x="37.15879225460357" y="3" transform="rotate(180 37.15879225460357 0)" font-family="sans-serif">A…</text></g><g class="relationship" transform="translate(-178.88203640600892 135.52999013007383) rotate(189.286899838897)"><path class="outline" fill="#A5ABB6" stroke="none" d="M 25 0.5 L 97.58612389176376 0.5 L 97.58612389176376 -0.5 L 25 -0.5 Z M 143.14862389176375 0.5 L 215.73474778352752 0.5 L 215.73474778352752 3.5 L 222.73474778352752 0 L 215.73474778352752 -3.5 L 215.73474778352752 -0.5 L 143.14862389176375 -0.5 Z"/><text text-anchor="middle" pointer-events="none" font-size="8px" fill="#000000" x="120.36737389176376" y="3" transform="rotate(180 120.36737389176376 0)" font-family="sans-serif">ACTED_IN</text></g><g class="relationship" transform="translate(-178.88203640600892 135.52999013007383) rotate(538.2788566887281)"><path class="outline" fill="#A5ABB6" stroke="none" d="M 25 0.5 L 46.70764270999527 0.5 L 46.70764270999527 -0.5 L 25 -0.5 Z M 92.27014270999527 0.5 L 113.97778541999054 0.5 L 113.97778541999054 3.5 L 120.97778541999054 0 L 113.97778541999054 -3.5 L 113.97778541999054 -0.5 L 92.27014270999527 -0.5 Z"/><text text-anchor="middle" pointer-events="none" font-size="8px" fill="#000000" x="69.48889270999527" y="3" transform="rotate(180 69.48889270999527 0)" font-family="sans-serif">ACTED_IN</text></g><g class="relationship" transform="translate(87.74926900521912 276.49137654172625) rotate(206.22496224212944)"><path class="outline" fill="#A5ABB6" stroke="none" d="M 25 0.5 L 43.39196352499776 0.5 L 43.39196352499776 -0.5 L 25 -0.5 Z M 88.95446352499776 0.5 L 107.34642704999553 0.5 L 107.34642704999553 3.5 L 114.34642704999553 0 L 107.34642704999553 -3.5 L 107.34642704999553 -0.5 L 88.95446352499776 -0.5 Z"/><text text-anchor="middle" pointer-events="none" font-size="8px" fill="#000000" x="66.17321352499776" y="3" transform="rotate(180 66.17321352499776 0)" font-family="sans-serif">ACTED_IN</text></g><g class="relationship" transform="translate(27.87313469155565 323.98777394668843) rotate(239.15887118118007)"><path class="outline" fill="#A5ABB6" stroke="none" d="M 25 0.5 L 37.23734339773743 0.5 L 37.23734339773743 -0.5 L 25 -0.5 Z M 82.79984339773743 0.5 L 95.03718679547487 0.5 L 95.03718679547487 3.5 L 102.03718679547487 0 L 95.03718679547487 -3.5 L 95.03718679547487 -0.5 L 82.79984339773743 -0.5 Z"/><text text-anchor="middle" pointer-events="none" font-size="8px" fill="#000000" x="60.01859339773743" y="3" transform="rotate(180 60.01859339773743 0)" font-family="sans-serif">ACTED_IN</text></g><g class="relationship" transform="translate(99.63402792769045 208.44786910358206) rotate(537.2952730997041)"><path class="outline" fill="#A5ABB6" stroke="none" d="M 25 0.5 L 42.23892818893988 0.5 L 42.23892818893988 -0.5 L 25 -0.5 Z M 87.80142818893988 0.5 L 105.04035637787976 0.5 L 105.04035637787976 3.5 L 112.04035637787976 0 L 105.04035637787976 -3.5 L 105.04035637787976 -0.5 L 87.80142818893988 -0.5 Z"/><text text-anchor="middle" pointer-events="none" font-size="8px" fill="#000000" x="65.02017818893988" y="3" transform="rotate(180 65.02017818893988 0)" font-family="sans-serif">ACTED_IN</text></g><g class="relationship" transform="translate(112.89637056531686 95.77591315442676) rotate(193.54272378843427)"><path class="outline" fill="#A5ABB6" stroke="none" d="M 25 0.5 L 41.15856748415841 0.5 L 41.15856748415841 -0.5 L 25 -0.5 Z M 86.72106748415841 0.5 L 102.87963496831682 0.5 L 102.87963496831682 3.5 L 109.87963496831682 0 L 102.87963496831682 -3.5 L 102.87963496831682 -0.5 L 86.72106748415841 -0.5 Z"/><text text-anchor="middle" pointer-events="none" font-size="8px" fill="#000000" x="63.93981748415841" y="3" transform="rotate(180 63.93981748415841 0)" font-family="sans-serif">ACTED_IN</text></g><g class="relationship" transform="translate(122.53533253610352 31.633354619574906) rotate(526.9772758598602)"><path class="outline" fill="#A5ABB6" stroke="none" d="M 25 0.5 L 45.96093664529185 0.5 L 45.96093664529185 -0.5 L 25 -0.5 Z M 91.52343664529185 0.5 L 112.4843732905837 0.5 L 112.4843732905837 3.5 L 119.4843732905837 0 L 112.4843732905837 -3.5 L 112.4843732905837 -0.5 L 91.52343664529185 -0.5 Z"/><text text-anchor="middle" pointer-events="none" font-size="8px" fill="#000000" x="68.74218664529185" y="3" transform="rotate(180 68.74218664529185 0)" font-family="sans-serif">ACTED_IN</text></g><g class="relationship" transform="translate(24.612235584635144 -57.65574869299571) rotate(469.37330538910635)"><path class="outline" fill="#A5ABB6" stroke="none" d="M 25 0.5 L 38.298874338611625 0.5 L 38.298874338611625 -0.5 L 25 -0.5 Z M 83.86137433861163 0.5 L 97.16024867722325 0.5 L 97.16024867722325 3.5 L 104.16024867722325 0 L 97.16024867722325 -3.5 L 97.16024867722325 -0.5 L 83.86137433861163 -0.5 Z"/><text text-anchor="middle" pointer-events="none" font-size="8px" fill="#000000" x="61.080124338611625" y="3" transform="rotate(180 61.080124338611625 0)" font-family="sans-serif">ACTED_IN</text></g><g class="relationship" transform="translate(89.36014668044162 -23.506466852647947) rotate(500.81704123083597)"><path class="outline" fill="#A5ABB6" stroke="none" d="M 25 0.5 L 43.12183236721859 0.5 L 43.12183236721859 -0.5 L 25 -0.5 Z M 88.68433236721859 0.5 L 106.80616473443717 0.5 L 106.80616473443717 3.5 L 113.80616473443717 0 L 106.80616473443717 -3.5 L 106.80616473443717 -0.5 L 88.68433236721859 -0.5 Z"/><text text-anchor="middle" pointer-events="none" font-size="8px" fill="#000000" x="65.90308236721859" y="3" transform="rotate(180 65.90308236721859 0)" font-family="sans-serif">ACTED_IN</text></g><g class="relationship" transform="translate(-320.4801336769558 206.68626937526028) rotate(305.2492861809096)"><path class="outline" fill="#A5ABB6" stroke="none" d="M 25 0.5 L 59.851436867122885 0.5 L 59.851436867122885 -0.5 L 25 -0.5 Z M 105.41393686712289 0.5 L 140.26537373424577 0.5 L 140.26537373424577 3.5 L 147.26537373424577 0 L 140.26537373424577 -3.5 L 140.26537373424577 -0.5 L 105.41393686712289 -0.5 Z"/><text text-anchor="middle" pointer-events="none" font-size="8px" fill="#000000" x="82.63268686712289" y="3" font-family="sans-serif">ACTED_IN</text></g><g class="relationship" transform="translate(-320.4801336769558 206.68626937526028) rotate(227.20635082847673)"><path class="outline" fill="#A5ABB6" stroke="none" d="M 25 0.5 L 49.44406963267353 0.5 L 49.44406963267353 -0.5 L 25 -0.5 Z M 95.00656963267353 0.5 L 119.45063926534706 0.5 L 119.45063926534706 3.5 L 126.45063926534706 0 L 119.45063926534706 -3.5 L 119.45063926534706 -0.5 L 95.00656963267353 -0.5 Z"/><text text-anchor="middle" pointer-events="none" font-size="8px" fill="#000000" x="72.22531963267353" y="3" transform="rotate(180 72.22531963267353 0)" font-family="sans-serif">ACTED_IN</text></g><g class="relationship" transform="translate(-320.4801336769558 206.68626937526028) rotate(266.3035125117551)"><path class="outline" fill="#A5ABB6" stroke="none" d="M 25 0.5 L 29.955512695961893 0.5 L 29.955512695961893 -0.5 L 25 -0.5 Z M 29.955512695961893 0.5 L 34.911025391923786 0.5 L 34.911025391923786 3.5 L 41.911025391923786 0 L 34.911025391923786 -3.5 L 34.911025391923786 -0.5 L 29.955512695961893 -0.5 Z"/><text text-anchor="middle" pointer-events="none" font-size="8px" fill="#000000" x="29.955512695961893" y="3" transform="rotate(180 29.955512695961893 0)" font-family="sans-serif"/></g><g class="relationship" transform="translate(-166.00973247330035 -6.301453163355291) rotate(487.2832132641935)"><path class="outline" fill="#A5ABB6" stroke="none" d="M 25 0.5 L 26.939157347286937 0.5 L 26.939157347286937 -0.5 L 25 -0.5 Z M 56.93915734728694 0.5 L 58.878314694573874 0.5 L 58.878314694573874 3.5 L 65.87831469457387 0 L 58.878314694573874 -3.5 L 58.878314694573874 -0.5 L 56.93915734728694 -0.5 Z"/><text text-anchor="middle" pointer-events="none" font-size="8px" fill="#000000" x="41.93915734728694" y="3" transform="rotate(180 41.93915734728694 0)" font-family="sans-serif">ACT…</text></g><g class="relationship" transform="translate(-166.00973247330035 -6.301453163355291) rotate(518.408378957547)"><path class="outline" fill="#A5ABB6" stroke="none" d="M 25 0.5 L 112.1095403501674 0.5 L 112.1095403501674 -0.5 L 25 -0.5 Z M 157.6720403501674 0.5 L 244.7815807003348 0.5 L 244.7815807003348 3.5 L 251.7815807003348 0 L 244.7815807003348 -3.5 L 244.7815807003348 -0.5 L 157.6720403501674 -0.5 Z"/><text text-anchor="middle" pointer-events="none" font-size="8px" fill="#000000" x="134.8907903501674" y="3" transform="rotate(180 134.8907903501674 0)" font-family="sans-serif">ACTED_IN</text></g><g class="relationship" transform="translate(-166.00973247330035 -6.301453163355291) rotate(497.35968776998743)"><path class="outline" fill="#A5ABB6" stroke="none" d="M 25 0.5 L 81.64409633632714 0.5 L 81.64409633632714 -0.5 L 25 -0.5 Z M 127.20659633632714 0.5 L 183.85069267265428 0.5 L 183.85069267265428 3.5 L 190.85069267265428 0 L 183.85069267265428 -3.5 L 183.85069267265428 -0.5 L 127.20659633632714 -0.5 Z"/><text text-anchor="middle" pointer-events="none" font-size="8px" fill="#000000" x="104.42534633632714" y="3" transform="rotate(180 104.42534633632714 0)" font-family="sans-serif">ACTED_IN</text></g><g class="relationship" transform="translate(-344.88422761014533 -6.593180069626598) rotate(390.38339195765116)"><path class="outline" fill="#A5ABB6" stroke="none" d="M 25 0.5 L 45.487713438856176 0.5 L 45.487713438856176 -0.5 L 25 -0.5 Z M 91.05021343885618 0.5 L 111.53792687771235 0.5 L 111.53792687771235 3.5 L 118.53792687771235 0 L 111.53792687771235 -3.5 L 111.53792687771235 -0.5 L 91.05021343885618 -0.5 Z"/><text text-anchor="middle" pointer-events="none" font-size="8px" fill="#000000" x="68.26896343885618" y="3" font-family="sans-serif">ACTED_IN</text></g><g class="relationship" transform="translate(-344.88422761014533 -6.593180069626598) rotate(487.537904683264)"><path class="outline" fill="#A5ABB6" stroke="none" d="M 25 0.5 L 38.12642470662935 0.5 L 38.12642470662935 -0.5 L 25 -0.5 Z M 83.68892470662935 0.5 L 96.8153494132587 0.5 L 96.8153494132587 3.5 L 103.8153494132587 0 L 96.8153494132587 -3.5 L 96.8153494132587 -0.5 L 83.68892470662935 -0.5 Z"/><text text-anchor="middle" pointer-events="none" font-size="8px" fill="#000000" x="60.90767470662935" y="3" transform="rotate(180 60.90767470662935 0)" font-family="sans-serif">ACTED_IN</text></g><g class="relationship" transform="translate(-344.88422761014533 -6.593180069626598) rotate(442.19185594012214)"><path class="outline" fill="#A5ABB6" stroke="none" d="M 25 0.5 L 47.65808943930338 0.5 L 47.65808943930338 -0.5 L 25 -0.5 Z M 93.22058943930338 0.5 L 115.87867887860676 0.5 L 115.87867887860676 3.5 L 122.87867887860676 0 L 115.87867887860676 -3.5 L 115.87867887860676 -0.5 L 93.22058943930338 -0.5 Z"/><text text-anchor="middle" pointer-events="none" font-size="8px" fill="#000000" x="70.43933943930338" y="3" font-family="sans-serif">ACTED_IN</text></g><g class="relationship" transform="translate(-230.47802749004123 233.8827906027071) rotate(224.89422608350844)"><path class="outline" fill="#A5ABB6" stroke="none" d="M 25 0.5 L 40.28740858598168 0.5 L 40.28740858598168 -0.5 L 25 -0.5 Z M 85.84990858598168 0.5 L 101.13731717196336 0.5 L 101.13731717196336 3.5 L 108.13731717196336 0 L 101.13731717196336 -3.5 L 101.13731717196336 -0.5 L 85.84990858598168 -0.5 Z"/><text text-anchor="middle" pointer-events="none" font-size="8px" fill="#000000" x="63.06865858598168" y="3" transform="rotate(180 63.06865858598168 0)" font-family="sans-serif">ACTED_IN</text></g></g><g class="layer nodes"><g class="node" transform="translate(-178.88203640600892,135.52999013007383)"><circle class="outline" cx="0" cy="0" r="25" fill="#F79767" stroke="#f36924" stroke-width="2px"/><text text-anchor="middle" pointer-events="none" font-family="sans-serif" dy="1.5625" font-size="25" fill="#FFFFFF"/><text text-anchor="middle" pointer-events="none" font-family="sans-serif" dy="1.5625" font-size="25" fill="#FFFFFF"/><text text-anchor="middle" pointer-events="none" y="0" font-size="10px" fill="#FFFFFF" font-family="sans-serif"> Hugo</text><text text-anchor="middle" pointer-events="none" y="10" font-size="10px" fill="#FFFFFF" font-family="sans-serif"> Weaving</text></g><g class="node" transform="translate(-37.25366347618196,214.91464714944684)"><circle class="outline" cx="0" cy="0" r="25" fill="#57C7E3" stroke="#23b3d7" stroke-width="2px"/><text text-anchor="middle" pointer-events="none" font-family="sans-serif" dy="1.5625" font-size="25" fill="#FFFFFF"/><text text-anchor="middle" pointer-events="none" font-family="sans-serif" dy="1.5625" font-size="25" fill="#FFFFFF"/><text text-anchor="middle" pointer-events="none" y="0" font-size="10px" fill="#FFFFFF" font-family="sans-serif"> Cloud</text><text text-anchor="middle" pointer-events="none" y="10" font-size="10px" fill="#FFFFFF" font-family="sans-serif"> Atlas</text></g><g class="node" transform="translate(87.74926900521912,276.49137654172625)"><circle class="outline" cx="0" cy="0" r="25" fill="#F79767" stroke="#f36924" stroke-width="2px"/><text text-anchor="middle" pointer-events="none" font-family="sans-serif" dy="1.5625" font-size="25" fill="#FFFFFF"/><text text-anchor="middle" pointer-events="none" font-family="sans-serif" dy="1.5625" font-size="25" fill="#FFFFFF"/><text text-anchor="middle" pointer-events="none" y="0" font-size="10px" fill="#FFFFFF" font-family="sans-serif"> Tom</text><text text-anchor="middle" pointer-events="none" y="10" font-size="10px" fill="#FFFFFF" font-family="sans-serif"> Hanks</text></g><g class="node" transform="translate(27.87313469155565,323.98777394668843)"><circle class="outline" cx="0" cy="0" r="25" fill="#F79767" stroke="#f36924" stroke-width="2px"/><text text-anchor="middle" pointer-events="none" font-family="sans-serif" dy="1.5625" font-size="25" fill="#FFFFFF"/><text text-anchor="middle" pointer-events="none" font-family="sans-serif" dy="1.5625" font-size="25" fill="#FFFFFF"/><text text-anchor="middle" pointer-events="none" y="0" font-size="10px" fill="#FFFFFF" font-family="sans-serif"> Jim</text><text text-anchor="middle" pointer-events="none" y="10" font-size="10px" fill="#FFFFFF" font-family="sans-serif"> Broadb…</text></g><g class="node" transform="translate(99.63402792769045,208.44786910358206)"><circle class="outline" cx="0" cy="0" r="25" fill="#F79767" stroke="#f36924" stroke-width="2px"/><text text-anchor="middle" pointer-events="none" font-family="sans-serif" dy="1.5625" font-size="25" fill="#FFFFFF"/><text text-anchor="middle" pointer-events="none" font-family="sans-serif" dy="1.5625" font-size="25" fill="#FFFFFF"/><text text-anchor="middle" pointer-events="none" y="0" font-size="10px" fill="#FFFFFF" font-family="sans-serif"> Halle</text><text text-anchor="middle" pointer-events="none" y="10" font-size="10px" fill="#FFFFFF" font-family="sans-serif"> Berry</text></g><g class="node" transform="translate(-18.233013937386133,64.19109957054326)"><circle class="outline" cx="0" cy="0" r="25" fill="#57C7E3" stroke="#23b3d7" stroke-width="2px"/><text text-anchor="middle" pointer-events="none" font-family="sans-serif" dy="1.5625" font-size="25" fill="#FFFFFF"/><text text-anchor="middle" pointer-events="none" font-family="sans-serif" dy="1.5625" font-size="25" fill="#FFFFFF"/><text text-anchor="middle" pointer-events="none" y="0" font-size="10px" fill="#FFFFFF" font-family="sans-serif"> V for</text><text text-anchor="middle" pointer-events="none" y="10" font-size="10px" fill="#FFFFFF" font-family="sans-serif"> Vendetta</text></g><g class="node" transform="translate(112.89637056531686,95.77591315442676)"><circle class="outline" cx="0" cy="0" r="25" fill="#F79767" stroke="#f36924" stroke-width="2px"/><text text-anchor="middle" pointer-events="none" font-family="sans-serif" dy="1.5625" font-size="25" fill="#FFFFFF"/><text text-anchor="middle" pointer-events="none" y="5" font-size="10px" fill="#FFFFFF" font-family="sans-serif"> John Hurt</text></g><g class="node" transform="translate(122.53533253610352,31.633354619574906)"><circle class="outline" cx="0" cy="0" r="25" fill="#F79767" stroke="#f36924" stroke-width="2px"/><text text-anchor="middle" pointer-events="none" font-family="sans-serif" dy="1.5625" font-size="25" fill="#FFFFFF"/><text text-anchor="middle" pointer-events="none" font-family="sans-serif" dy="1.5625" font-size="25" fill="#FFFFFF"/><text text-anchor="middle" pointer-events="none" y="0" font-size="10px" fill="#FFFFFF" font-family="sans-serif"> Stephen</text><text text-anchor="middle" pointer-events="none" y="10" font-size="10px" fill="#FFFFFF" font-family="sans-serif"> Rea</text></g><g class="node" transform="translate(24.612235584635144,-57.65574869299571)"><circle class="outline" cx="0" cy="0" r="25" fill="#F79767" stroke="#f36924" stroke-width="2px"/><text text-anchor="middle" pointer-events="none" font-family="sans-serif" dy="1.5625" font-size="25" fill="#FFFFFF"/><text text-anchor="middle" pointer-events="none" font-family="sans-serif" dy="1.5625" font-size="25" fill="#FFFFFF"/><text text-anchor="middle" pointer-events="none" y="0" font-size="10px" fill="#FFFFFF" font-family="sans-serif"> Natalie</text><text text-anchor="middle" pointer-events="none" y="10" font-size="10px" fill="#FFFFFF" font-family="sans-serif"> Portman</text></g><g class="node" transform="translate(89.36014668044162,-23.506466852647947)"><circle class="outline" cx="0" cy="0" r="25" fill="#F79767" stroke="#f36924" stroke-width="2px"/><text text-anchor="middle" pointer-events="none" font-family="sans-serif" dy="1.5625" font-size="25" fill="#FFFFFF"/><text text-anchor="middle" pointer-events="none" y="5" font-size="10px" fill="#FFFFFF" font-family="sans-serif"> Ben Miles</text></g><g class="node" transform="translate(-221.05975447315814,66.00596802936306)"><circle class="outline" cx="0" cy="0" r="25" fill="#57C7E3" stroke="#23b3d7" stroke-width="2px"/><text text-anchor="middle" pointer-events="none" font-family="sans-serif" dy="1.5625" font-size="25" fill="#FFFFFF"/><text text-anchor="middle" pointer-events="none" font-family="sans-serif" dy="1.5625" font-size="25" fill="#FFFFFF"/><text text-anchor="middle" pointer-events="none" font-family="sans-serif" dy="1.5625" font-size="25" fill="#FFFFFF"/><text text-anchor="middle" pointer-events="none" y="-5" font-size="10px" fill="#FFFFFF" font-family="sans-serif"> The</text><text text-anchor="middle" pointer-events="none" y="5" font-size="10px" fill="#FFFFFF" font-family="sans-serif"> Matrix</text><text text-anchor="middle" pointer-events="none" y="15" font-size="10px" fill="#FFFFFF" font-family="sans-serif"> Revol…</text></g><g class="node" transform="translate(-320.4801336769558,206.68626937526028)"><circle class="outline" cx="0" cy="0" r="25" fill="#F79767" stroke="#f36924" stroke-width="2px"/><text text-anchor="middle" pointer-events="none" font-family="sans-serif" dy="1.5625" font-size="25" fill="#FFFFFF"/><text text-anchor="middle" pointer-events="none" font-family="sans-serif" dy="1.5625" font-size="25" fill="#FFFFFF"/><text text-anchor="middle" pointer-events="none" y="0" font-size="10px" fill="#FFFFFF" font-family="sans-serif"> Laurence</text><text text-anchor="middle" pointer-events="none" y="10" font-size="10px" fill="#FFFFFF" font-family="sans-serif"> Fishbur…</text></g><g class="node" transform="translate(-166.00973247330035,-6.301453163355291)"><circle class="outline" cx="0" cy="0" r="25" fill="#F79767" stroke="#f36924" stroke-width="2px"/><text text-anchor="middle" pointer-events="none" font-family="sans-serif" dy="1.5625" font-size="25" fill="#FFFFFF"/><text text-anchor="middle" pointer-events="none" y="5" font-size="10px" fill="#FFFFFF" font-family="sans-serif"> Carrie-A…</text></g><g class="node" transform="translate(-344.88422761014533,-6.593180069626598)"><circle class="outline" cx="0" cy="0" r="25" fill="#F79767" stroke="#f36924" stroke-width="2px"/><text text-anchor="middle" pointer-events="none" font-family="sans-serif" dy="1.5625" font-size="25" fill="#FFFFFF"/><text text-anchor="middle" pointer-events="none" font-family="sans-serif" dy="1.5625" font-size="25" fill="#FFFFFF"/><text text-anchor="middle" pointer-events="none" y="0" font-size="10px" fill="#FFFFFF" font-family="sans-serif"> Keanu</text><text text-anchor="middle" pointer-events="none" y="10" font-size="10px" fill="#FFFFFF" font-family="sans-serif"> Reeves</text></g><g class="node" transform="translate(-423.3696356316143,95.55100709813868)"><circle class="outline" cx="0" cy="0" r="25" fill="#57C7E3" stroke="#23b3d7" stroke-width="2px"/><text text-anchor="middle" pointer-events="none" font-family="sans-serif" dy="1.5625" font-size="25" fill="#FFFFFF"/><text text-anchor="middle" pointer-events="none" font-family="sans-serif" dy="1.5625" font-size="25" fill="#FFFFFF"/><text text-anchor="middle" pointer-events="none" font-family="sans-serif" dy="1.5625" font-size="25" fill="#FFFFFF"/><text text-anchor="middle" pointer-events="none" y="-5" font-size="10px" fill="#FFFFFF" font-family="sans-serif"> The</text><text text-anchor="middle" pointer-events="none" y="5" font-size="10px" fill="#FFFFFF" font-family="sans-serif"> Matrix</text><text text-anchor="middle" pointer-events="none" y="15" font-size="10px" fill="#FFFFFF" font-family="sans-serif"> Reloa…</text></g><g class="node" transform="translate(-324.79396316164036,139.9144475177152)"><circle class="outline" cx="0" cy="0" r="25" fill="#57C7E3" stroke="#23b3d7" stroke-width="2px"/><text text-anchor="middle" pointer-events="none" font-family="sans-serif" dy="1.5625" font-size="25" fill="#FFFFFF"/><text text-anchor="middle" pointer-events="none" font-family="sans-serif" dy="1.5625" font-size="25" fill="#FFFFFF"/><text text-anchor="middle" pointer-events="none" y="0" font-size="10px" fill="#FFFFFF" font-family="sans-serif"> The</text><text text-anchor="middle" pointer-events="none" y="10" font-size="10px" fill="#FFFFFF" font-family="sans-serif"> Matrix</text></g><g class="node" transform="translate(-230.47802749004123,233.8827906027071)"><circle class="outline" cx="0" cy="0" r="25" fill="#F79767" stroke="#f36924" stroke-width="2px"/><text text-anchor="middle" pointer-events="none" font-family="sans-serif" dy="1.5625" font-size="25" fill="#FFFFFF"/><text text-anchor="middle" pointer-events="none" font-family="sans-serif" dy="1.5625" font-size="25" fill="#FFFFFF"/><text text-anchor="middle" pointer-events="none" y="0" font-size="10px" fill="#FFFFFF" font-family="sans-serif"> Emil</text><text text-anchor="middle" pointer-events="none" y="10" font-size="10px" fill="#FFFFFF" font-family="sans-serif"> Eifrem</text></g></g></svg>