<svg xmlns="http://www.w3.org/2000/svg" width="811.9265747070312" height="683.904052734375" viewBox="-561.1821899414062 -359.0376281738281 811.9265747070312 683.904052734375"><title>Neo4j Graph Visualization</title><desc>Created using Neo4j (http://www.neo4j.com/)</desc><g class="layer relationships"><g class="relationship" transform="translate(-291.7526949917229 -330.0376147645004) rotate(465.21769378252924)"><path class="outline" fill="#A5ABB6" stroke="none" d="M 24.018736134675446,6.953439040707552 L 24.277555179777966,5.987513214418485 A 183.0642811096552 183.0642811096552 0 0 0 46.18917718500623,10.444934088831417 L 46.050051735357776,11.435208853358972 A 184.0642811096552 184.0642811096552 0 0 1 24.018736134675446,6.953439040707552 Z M 92.93737267659215,11.991111851090835 L 92.82176472191811,10.997816929722518 A 183.0642811096552 183.0642811096552 0 0 0 114.83290826109615,7.061150846682964 L 114.12537268303967,4.145778931166133 L 121.75336532697818,5.8961298171373215 L 115.77628903183813,10.948313400705407 L 115.06875345378165,8.032941485188575 A 184.0642811096552 184.0642811096552 0 0 1 92.93737267659215,11.991111851090835"/><text text-anchor="middle" pointer-events="none" font-size="8px" fill="#000000" x="69.48186534549023" y="15.712377035638411" transform="rotate(180 69.48186534549023 12.712377035638411)" font-family="sans-serif">DIRECTED</text></g><g class="relationship" transform="translate(-291.7526949917229 -330.0376147645004) rotate(380.22003043748316)"><path class="outline" fill="#A5ABB6" stroke="none" d="M 24.018736134675446,6.953439040707552 L 24.277555179777966,5.987513214418485 A 520.2184670071235 520.2184670071235 0 0 0 130.17650311341285,22.91884201967912 L 130.12125036718257,23.917314419915556 A 521.2184670071235 521.2184670071235 0 0 1 24.018736134675446,6.953439040707552 Z M 181.93006731624456,24.20537091321887 L 181.88592063550027,23.206345853183166 A 520.2184670071235 520.2184670071235 0 0 0 287.96659157065443,7.453621564662803 L 287.22240467015195,4.547389320481258 L 294.8718312904951,6.201557504187259 L 288.9588407713244,11.328597890238196 L 288.2146538708219,8.422365646056651 A 521.2184670071235 521.2184670071235 0 0 1 181.93006731624456,24.20537091321887"/><text text-anchor="middle" pointer-events="none" font-size="8px" fill="#000000" x="156.02485744404913" y="27.205479201814228" font-family="sans-serif">PRODUCED</text></g><g class="relationship" transform="translate(-291.7526949917229 -330.0376147645004) rotate(380.22003043748316)"><path class="outline" fill="#A5ABB6" stroke="none" d="M 24.018736134675446,-6.953439040707552 L 24.277555179777966,-5.987513214418485 A 520.2184670071235 520.2184670071235 0 0 1 138.16358997181112,-23.299278352391525 L 138.12369055762295,-24.298482053719454 A 521.2184670071235 521.2184670071235 0 0 0 24.018736134675446,-6.953439040707552 Z M 173.9238834318831,-24.49753076060415 L 173.89509726576205,-23.497945168150977 A 520.2184670071235 520.2184670071235 0 0 1 287.96659157065443,-7.453621564662803 L 287.22240467015195,-4.547389320481258 L 294.8718312904951,-6.201557504187259 L 288.9588407713244,-11.328597890238196 L 288.2146538708219,-8.422365646056651 A 521.2184670071235 521.2184670071235 0 0 0 173.9238834318831,-24.49753076060415"/><text text-anchor="middle" pointer-events="none" font-size="8px" fill="#000000" x="156.0248574440492" y="-21.205479201814228" font-family="sans-serif">WROTE</text></g><g class="relationship" transform="translate(-291.7526949917229 -330.0376147645004) rotate(465.21769378252924)"><path class="outline" fill="#A5ABB6" stroke="none" d="M 24.018736134675446,-6.953439040707552 L 24.277555179777966,-5.987513214418485 A 183.0642811096552 183.0642811096552 0 0 1 51.68955607815556,-11.132942315844048 L 51.58047678966868,-12.1269753680225 A 184.0642811096552 184.0642811096552 0 0 0 24.018736134675446,-6.953439040707552 Z M 87.39210114160507,-12.55156327219899 L 87.30662000730898,-11.555223482930558 A 183.0642811096552 183.0642811096552 0 0 1 114.83290826109615,-7.061150846682964 L 114.12537268303967,-4.145778931166133 L 121.75336532697818,-5.8961298171373215 L 115.77628903183813,-10.948313400705407 L 115.06875345378165,-8.032941485188575 A 184.0642811096552 184.0642811096552 0 0 0 87.39210114160507,-12.55156327219899"/><text text-anchor="middle" pointer-events="none" font-size="8px" fill="#000000" x="69.4818653454902" y="-9.712377035638411" transform="rotate(180 69.4818653454902 -12.712377035638411)" font-family="sans-serif">WROTE</text></g><g class="relationship" transform="translate(-291.7526949917229 -330.0376147645004) rotate(438.9312267499579)"><path class="outline" fill="#A5ABB6" stroke="none" d="M 25 0.5 L 155.58732801783995 0.5 L 155.58732801783995 -0.5 L 25 -0.5 Z M 202.47795301783995 0.5 L 333.0652810356799 0.5 L 333.0652810356799 3.5 L 340.0652810356799 0 L 333.0652810356799 -3.5 L 333.0652810356799 -0.5 L 202.47795301783995 -0.5 Z"/><text text-anchor="middle" pointer-events="none" font-size="8px" fill="#000000" x="179.03264051783995" y="3" font-family="sans-serif">DIRECTED</text></g><g class="relationship" transform="translate(-291.7526949917229 -330.0376147645004) rotate(444.6900337432914)"><path class="outline" fill="#A5ABB6" stroke="none" d="M 25 0.5 L 92.674845701192 0.5 L 92.674845701192 -0.5 L 25 -0.5 Z M 144.456095701192 0.5 L 212.130941402384 0.5 L 212.130941402384 3.5 L 219.130941402384 0 L 212.130941402384 -3.5 L 212.130941402384 -0.5 L 144.456095701192 -0.5 Z"/><text text-anchor="middle" pointer-events="none" font-size="8px" fill="#000000" x="118.565470701192" y="3" font-family="sans-serif">PRODUCED</text></g><g class="relationship" transform="translate(-291.7526949917229 -330.0376147645004) rotate(493.917339861791)"><path class="outline" fill="#A5ABB6" stroke="none" d="M 25 0.5 L 86.45189501699741 0.5 L 86.45189501699741 -0.5 L 25 -0.5 Z M 133.3425200169974 0.5 L 194.79441503399482 0.5 L 194.79441503399482 3.5 L 201.79441503399482 0 L 194.79441503399482 -3.5 L 194.79441503399482 -0.5 L 133.3425200169974 -0.5 Z"/><text text-anchor="middle" pointer-events="none" font-size="8px" fill="#000000" x="109.89720751699741" y="3" transform="rotate(180 109.89720751699741 0)" font-family="sans-serif">DIRECTED</text></g><g class="relationship" transform="translate(-291.7526949917229 -330.0376147645004) rotate(460.33649830033835)"><path class="outline" fill="#A5ABB6" stroke="none" d="M 25 0.5 L 79.63822822835897 0.5 L 79.63822822835897 -0.5 L 25 -0.5 Z M 126.52885322835897 0.5 L 181.16708145671794 0.5 L 181.16708145671794 3.5 L 188.16708145671794 0 L 181.16708145671794 -3.5 L 181.16708145671794 -0.5 L 126.52885322835897 -0.5 Z"/><text text-anchor="middle" pointer-events="none" font-size="8px" fill="#000000" x="103.08354072835897" y="3" transform="rotate(180 103.08354072835897 0)" font-family="sans-serif">DIRECTED</text></g><g class="relationship" transform="translate(-291.7526949917229 -330.0376147645004) rotate(401.1125295514392)"><path class="outline" fill="#A5ABB6" stroke="none" d="M 25 0.5 L 61.27026395368949 0.5 L 61.27026395368949 -0.5 L 25 -0.5 Z M 108.1608889536895 0.5 L 144.431152907379 0.5 L 144.431152907379 3.5 L 151.431152907379 0 L 144.431152907379 -3.5 L 144.431152907379 -0.5 L 108.1608889536895 -0.5 Z"/><text text-anchor="middle" pointer-events="none" font-size="8px" fill="#000000" x="84.7155764536895" y="3" font-family="sans-serif">DIRECTED</text></g><g class="relationship" transform="translate(-74.43806007354425 -101.03741801297389) rotate(199.0091524681592)"><path class="outline" fill="#A5ABB6" stroke="none" d="M 25 0.5 L 105.80738637829614 0.5 L 105.80738637829614 -0.5 L 25 -0.5 Z M 157.58863637829614 0.5 L 238.3960227565923 0.5 L 238.3960227565923 3.5 L 245.3960227565923 0 L 238.3960227565923 -3.5 L 238.3960227565923 -0.5 L 157.58863637829614 -0.5 Z"/><text text-anchor="middle" pointer-events="none" font-size="8px" fill="#000000" x="131.69801137829614" y="3" transform="rotate(180 131.69801137829614 0)" font-family="sans-serif">PRODUCED</text></g><g class="relationship" transform="translate(-74.43806007354425 -101.03741801297389) rotate(304.6704308157366)"><path class="outline" fill="#A5ABB6" stroke="none" d="M 25 0.5 L 42.7815019144971 0.5 L 42.7815019144971 -0.5 L 25 -0.5 Z M 94.5627519144971 0.5 L 112.3442538289942 0.5 L 112.3442538289942 3.5 L 119.3442538289942 0 L 112.3442538289942 -3.5 L 112.3442538289942 -0.5 L 94.5627519144971 -0.5 Z"/><text text-anchor="middle" pointer-events="none" font-size="8px" fill="#000000" x="68.6721269144971" y="3" font-family="sans-serif">PRODUCED</text></g><g class="relationship" transform="translate(-74.43806007354425 -101.03741801297389) rotate(535.863335862947)"><path class="outline" fill="#A5ABB6" stroke="none" d="M 25 0.5 L 68.22459617311485 0.5 L 68.22459617311485 -0.5 L 25 -0.5 Z M 120.00584617311485 0.5 L 163.2304423462297 0.5 L 163.2304423462297 3.5 L 170.2304423462297 0 L 163.2304423462297 -3.5 L 163.2304423462297 -0.5 L 120.00584617311485 -0.5 Z"/><text text-anchor="middle" pointer-events="none" font-size="8px" fill="#000000" x="94.11522117311485" y="3" transform="rotate(180 94.11522117311485 0)" font-family="sans-serif">PRODUCED</text></g><g class="relationship" transform="translate(-74.43806007354425 -101.03741801297389) rotate(189.93688133545317)"><path class="outline" fill="#A5ABB6" stroke="none" d="M 25 0.5 L 160.7740120229982 0.5 L 160.7740120229982 -0.5 L 25 -0.5 Z M 212.5552620229982 0.5 L 348.3292740459964 0.5 L 348.3292740459964 3.5 L 355.3292740459964 0 L 348.3292740459964 -3.5 L 348.3292740459964 -0.5 L 212.5552620229982 -0.5 Z"/><text text-anchor="middle" pointer-events="none" font-size="8px" fill="#000000" x="186.6646370229982" y="3" transform="rotate(180 186.6646370229982 0)" font-family="sans-serif">PRODUCED</text></g><g class="relationship" transform="translate(-74.43806007354425 -101.03741801297389) rotate(184.31710763006544)"><path class="outline" fill="#A5ABB6" stroke="none" d="M 25 0.5 L 98.75444881667471 0.5 L 98.75444881667471 -0.5 L 25 -0.5 Z M 150.5356988166747 0.5 L 224.29014763334942 0.5 L 224.29014763334942 3.5 L 231.29014763334942 0 L 224.29014763334942 -3.5 L 224.29014763334942 -0.5 L 150.5356988166747 -0.5 Z"/><text text-anchor="middle" pointer-events="none" font-size="8px" fill="#000000" x="124.64507381667471" y="3" transform="rotate(180 124.64507381667471 0)" font-family="sans-serif">PRODUCED</text></g><g class="relationship" transform="translate(-74.43806007354425 -101.03741801297389) rotate(233.24525778449743)"><path class="outline" fill="#A5ABB6" stroke="none" d="M 25 0.5 L 41.12176145472313 0.5 L 41.12176145472313 -0.5 L 25 -0.5 Z M 92.90301145472313 0.5 L 109.02477290944626 0.5 L 109.02477290944626 3.5 L 116.02477290944626 0 L 109.02477290944626 -3.5 L 109.02477290944626 -0.5 L 92.90301145472313 -0.5 Z"/><text text-anchor="middle" pointer-events="none" font-size="8px" fill="#000000" x="67.01238645472313" y="3" transform="rotate(180 67.01238645472313 0)" font-family="sans-serif">PRODUCED</text></g><g class="relationship" transform="translate(-532.1821606836799 53.135517122146695) rotate(309.8365376110667)"><path class="outline" fill="#A5ABB6" stroke="none" d="M 24.018736134675446,6.953439040707552 L 24.277555179777966,5.987513214418485 A 513.2080435167418 513.2080435167418 0 0 0 130.80919040629368,22.800507431546293 L 130.7579511849533,23.79919383988306 A 514.2080435167418 514.2080435167418 0 0 1 24.018736134675446,6.953439040707552 Z M 177.6771813473378,24.062990463395295 L 177.6371749517456,23.063791039700618 A 513.2080435167418 513.2080435167418 0 0 0 284.3511265794629,7.449739464989341 L 283.6073021758207,4.5434144218212085 L 291.25652241412894,6.198536697018777 L 285.3428924509859,11.324839522546853 L 284.5990680473437,8.418514479378718 A 514.2080435167418 514.2080435167418 0 0 1 177.6771813473378,24.062990463395295"/><text text-anchor="middle" pointer-events="none" font-size="8px" fill="#000000" x="154.21736699918299" y="26.966534047580467" font-family="sans-serif">DIRECTED</text></g><g class="relationship" transform="translate(-532.1821606836799 53.135517122146695) rotate(333.1842177120766)"><path class="outline" fill="#A5ABB6" stroke="none" d="M 24.018736134675446,6.953439040707552 L 24.277555179777966,5.987513214418485 A 1073.5124811793971 1073.5124811793971 0 0 0 273.0683158646426,42.17330767978069 L 273.04125077214576,43.172941353067245 A 1074.5124811793971 1074.5124811793971 0 0 1 24.018736134675446,6.953439040707552 Z M 324.8413626107304,43.32637118590446 L 324.82021969006234,42.326594722436084 A 1073.5124811793971 1073.5124811793971 0 0 0 573.8209748630302,7.615238561453768 L 573.0616974000418,4.712912298919198 L 580.7196157194422,6.327312191569903 L 574.8333448136814,11.48500691149986 L 574.074067350693,8.58268064896529 A 1074.5124811793971 1074.5124811793971 0 0 1 324.8413626107304,43.32637118590446"/><text text-anchor="middle" pointer-events="none" font-size="8px" fill="#000000" x="298.9418629578707" y="46.06185274466952" font-family="sans-serif">PRODUCED</text></g><g class="relationship" transform="translate(-532.1821606836799 53.135517122146695) rotate(309.8365376110667)"><path class="outline" fill="#A5ABB6" stroke="none" d="M 24.018736134675446,-6.953439040707552 L 24.277555179777966,-5.987513214418485 A 513.2080435167418 513.2080435167418 0 0 1 136.35651047980707,-23.055038238626707 L 136.3160803643324,-24.054220607247544 A 514.2080435167418 514.2080435167418 0 0 0 24.018736134675446,-6.953439040707552 Z M 172.1165359396661,-24.255503519782337 L 172.0873435433448,-23.255929708602253 A 513.2080435167418 513.2080435167418 0 0 1 284.3511265794629,-7.449739464989341 L 283.6073021758207,-4.5434144218212085 L 291.25652241412894,-6.198536697018777 L 285.3428924509859,-11.324839522546853 L 284.5990680473437,-8.418514479378718 A 514.2080435167418 514.2080435167418 0 0 0 172.1165359396661,-24.255503519782337"/><text text-anchor="middle" pointer-events="none" font-size="8px" fill="#000000" x="154.2173669991829" y="-20.966534047580467" font-family="sans-serif">WROTE</text></g><g class="relationship" transform="translate(-532.1821606836799 53.135517122146695) rotate(333.1842177120766)"><path class="outline" fill="#A5ABB6" stroke="none" d="M 24.018736134675446,-6.953439040707552 L 24.277555179777966,-5.987513214418485 A 1073.5124811793971 1073.5124811793971 0 0 1 281.0662980482864,-42.36003231626387 L 281.0466832484726,-43.35983992757133 A 1074.5124811793971 1074.5124811793971 0 0 0 24.018736134675446,-6.953439040707552 Z M 316.8349634374561,-43.4658433637037 L 316.82127170913196,-42.465937099809025 A 1073.5124811793971 1073.5124811793971 0 0 1 573.8209748630302,-7.615238561453768 L 573.0616974000418,-4.712912298919198 L 580.7196157194422,-6.327312191569903 L 574.8333448136814,-11.48500691149986 L 574.074067350693,-8.58268064896529 A 1074.5124811793971 1074.5124811793971 0 0 0 316.8349634374561,-43.4658433637037"/><text text-anchor="middle" pointer-events="none" font-size="8px" fill="#000000" x="298.9418629578704" y="-40.06185274466952" font-family="sans-serif">WROTE</text></g><g class="relationship" transform="translate(-532.1821606836799 53.135517122146695) rotate(331.9595240223443)"><path class="outline" fill="#A5ABB6" stroke="none" d="M 25 0.5 L 119.61095154573474 0.5 L 119.61095154573474 -0.5 L 25 -0.5 Z M 171.39220154573474 0.5 L 266.00315309146947 0.5 L 266.00315309146947 3.5 L 273.00315309146947 0 L 266.00315309146947 -3.5 L 266.00315309146947 -0.5 L 171.39220154573474 -0.5 Z"/><text text-anchor="middle" pointer-events="none" font-size="8px" fill="#000000" x="145.50157654573474" y="3" font-family="sans-serif">PRODUCED</text></g><g class="relationship" transform="translate(-532.1821606836799 53.135517122146695) rotate(355.41551571753587)"><path class="outline" fill="#A5ABB6" stroke="none" d="M 25 0.5 L 128.81167219914693 0.5 L 128.81167219914693 -0.5 L 25 -0.5 Z M 175.70229719914693 0.5 L 279.51396939829385 0.5 L 279.51396939829385 3.5 L 286.51396939829385 0 L 279.51396939829385 -3.5 L 279.51396939829385 -0.5 L 175.70229719914693 -0.5 Z"/><text text-anchor="middle" pointer-events="none" font-size="8px" fill="#000000" x="152.25698469914693" y="3" font-family="sans-serif">DIRECTED</text></g><g class="relationship" transform="translate(-532.1821606836799 53.135517122146695) rotate(290.7144677230915)"><path class="outline" fill="#A5ABB6" stroke="none" d="M 25 0.5 L 90.55222803254036 0.5 L 90.55222803254036 -0.5 L 25 -0.5 Z M 137.44285303254037 0.5 L 202.9950810650807 0.5 L 202.9950810650807 3.5 L 209.9950810650807 0 L 202.9950810650807 -3.5 L 202.9950810650807 -0.5 L 137.44285303254037 -0.5 Z"/><text text-anchor="middle" pointer-events="none" font-size="8px" fill="#000000" x="113.99754053254036" y="3" font-family="sans-serif">DIRECTED</text></g><g class="relationship" transform="translate(-532.1821606836799 53.135517122146695) rotate(319.37136183615087)"><path class="outline" fill="#A5ABB6" stroke="none" d="M 25 0.5 L 106.25332198166774 0.5 L 106.25332198166774 -0.5 L 25 -0.5 Z M 153.14394698166774 0.5 L 234.39726896333548 0.5 L 234.39726896333548 3.5 L 241.39726896333548 0 L 234.39726896333548 -3.5 L 234.39726896333548 -0.5 L 153.14394698166774 -0.5 Z"/><text text-anchor="middle" pointer-events="none" font-size="8px" fill="#000000" x="129.69863448166774" y="3" font-family="sans-serif">DIRECTED</text></g><g class="relationship" transform="translate(-532.1821606836799 53.135517122146695) rotate(324.4136147476644)"><path class="outline" fill="#A5ABB6" stroke="none" d="M 25 0.5 L 202.6035215081699 0.5 L 202.6035215081699 -0.5 L 25 -0.5 Z M 249.4941465081699 0.5 L 427.0976680163398 0.5 L 427.0976680163398 3.5 L 434.0976680163398 0 L 427.0976680163398 -3.5 L 427.0976680163398 -0.5 L 249.4941465081699 -0.5 Z"/><text text-anchor="middle" pointer-events="none" font-size="8px" fill="#000000" x="226.0488340081699" y="3" font-family="sans-serif">DIRECTED</text></g><g class="relationship" transform="translate(46.78409966102612 -3.657121575331253) rotate(386.547308023804)"><path class="outline" fill="#A5ABB6" stroke="none" d="M 21.40063509461097,12.933012701892217 L 21.90063509461097,12.06698729810778 A 127.99960099120764 127.99960099120764 0 0 0 57.853549308241334,26.105112004008618 L 57.63443232611965,27.080810598937333 A 128.99960099120764 128.99960099120764 0 0 1 21.40063509461097,12.933012701892217 Z M 109.25642476526482,28.083708342542565 L 109.07537002559442,27.100235322453614 A 127.99960099120764 127.99960099120764 0 0 0 145.54640638615263,14.469143030101321 L 144.14844958783334,11.814766118275701 L 151.97294531346563,11.649639985993948 L 147.41034878391167,18.008312245868815 L 146.0123919855924,15.353935334043197 A 128.99960099120764 128.99960099120764 0 0 1 109.25642476526482,28.083708342542565"/><text text-anchor="middle" pointer-events="none" font-size="8px" fill="#000000" x="83.40445199488613" y="32.69143880570509" font-family="sans-serif">PRODUCED</text></g><g class="relationship" transform="translate(46.78409966102612 -3.657121575331253) rotate(386.547308023804)"><path class="outline" fill="#A5ABB6" stroke="none" d="M 25 0.5 L 60.101063956006215 0.5 L 60.101063956006215 -0.5 L 25 -0.5 Z M 106.99168895600621 0.5 L 142.09275291201243 0.5 L 142.09275291201243 3.5 L 149.09275291201243 0 L 142.09275291201243 -3.5 L 142.09275291201243 -0.5 L 106.99168895600621 -0.5 Z"/><text text-anchor="middle" pointer-events="none" font-size="8px" fill="#000000" x="83.54637645600621" y="3" font-family="sans-serif">DIRECTED</text></g><g class="relationship" transform="translate(46.78409966102612 -3.657121575331253) rotate(386.547308023804)"><path class="outline" fill="#A5ABB6" stroke="none" d="M 21.40063509461097,-12.933012701892217 L 21.90063509461097,-12.06698729810778 A 127.99960099120764 127.99960099120764 0 0 1 65.68192288514436,-27.608761324956475 L 65.52396526224162,-28.59620721682444 A 128.99960099120764 128.99960099120764 0 0 0 21.40063509461097,-12.933012701892217 Z M 101.31398598165708,-29.291525807353466 L 101.19450072532291,-28.298689832220234 A 127.99960099120764 127.99960099120764 0 0 1 145.54640638615263,-14.469143030101321 L 144.14844958783334,-11.814766118275701 L 151.97294531346563,-11.649639985993948 L 147.41034878391167,-18.008312245868815 L 146.0123919855924,-15.353935334043197 A 128.99960099120764 128.99960099120764 0 0 0 101.31398598165708,-29.291525807353466"/><text text-anchor="middle" pointer-events="none" font-size="8px" fill="#000000" x="83.40445199488607" y="-26.69143880570509" font-family="sans-serif">WROTE</text></g><g class="relationship" transform="translate(221.74438618176058 -67.63129529500686) rotate(196.13936721504422)"><path class="outline" fill="#A5ABB6" stroke="none" d="M 24.018736134675446,-6.953439040707552 L 24.277555179777966,-5.987513214418485 A 192.03450308218083 192.03450308218083 0 0 1 48.46031929546034,-10.827742082067374 L 48.327429516857045,-11.818872904281449 A 193.03450308218083 193.03450308218083 0 0 0 24.018736134675446,-6.953439040707552 Z M 95.22061854674499,-12.358733345716843 L 95.1105818625598,-11.364805819116668 A 192.03450308218083 192.03450308218083 0 0 1 119.39836855007316,-7.082596857867202 L 118.68883001517158,-4.167711771368985 L 126.31802350771926,-5.912821124179876 L 120.34441992994194,-10.96911030653149 L 119.63488139504035,-8.054225220033274 A 193.03450308218083 193.03450308218083 0 0 0 95.22061854674499,-12.358733345716843"/><text text-anchor="middle" pointer-events="none" font-size="8px" fill="#000000" x="71.76332461712806" y="-10.01817234018776" transform="rotate(180 71.76332461712806 -13.01817234018776)" font-family="sans-serif">DIRECTED</text></g><g class="relationship" transform="translate(221.74438618176058 -67.63129529500686) rotate(196.13936721504422)"><path class="outline" fill="#A5ABB6" stroke="none" d="M 24.018736134675446,6.953439040707552 L 24.277555179777966,5.987513214418485 A 192.03450308218083 192.03450308218083 0 0 0 46.04511189083711,10.488287028571449 L 45.899645167123126,11.47765017337315 A 193.03450308218083 193.03450308218083 0 0 1 24.018736134675446,6.953439040707552 Z M 97.65561507994047,12.073493649623856 L 97.53296408849768,11.081043784744992 A 192.03450308218083 192.03450308218083 0 0 0 119.39836855007316,7.082596857867202 L 118.68883001517158,4.167711771368985 L 126.31802350771926,5.912821124179876 L 120.34441992994194,10.96911030653149 L 119.63488139504035,8.054225220033274 A 193.03450308218083 193.03450308218083 0 0 1 97.65561507994047,12.073493649623856"/><text text-anchor="middle" pointer-events="none" font-size="8px" fill="#000000" x="71.76332461712803" y="16.01817234018776" transform="rotate(180 71.76332461712803 13.01817234018776)" font-family="sans-serif">PRODUCED</text></g><g class="relationship" transform="translate(182.3452420891786 -180.34743875884018) rotate(506.0589153845789)"><path class="outline" fill="#A5ABB6" stroke="none" d="M 24.018736134675446,-6.953439040707552 L 24.277555179777966,-5.987513214418485 A 145.2671964512389 145.2671964512389 0 0 1 34.27350568621736,-8.290966682309659 L 34.08349743082259,-9.272749174963621 A 146.2671964512389 146.2671964512389 0 0 0 24.018736134675446,-6.953439040707552 Z M 85.7648508093166,-9.97329613085833 L 85.60152383553904,-8.986724136710563 A 145.2671964512389 145.2671964512389 0 0 1 95.65623738439366,-6.955059829693987 L 94.95861054310487,-4.037300965374762 L 102.58061254135333,-5.813557010739991 L 96.58640650611207,-10.84540498211962 L 95.88877966482328,-7.9276461178003945 A 146.2671964512389 146.2671964512389 0 0 0 85.7648508093166,-9.97329613085833"/><text text-anchor="middle" pointer-events="none" font-size="8px" fill="#000000" x="59.89976188586006" y="-8.42398302012893" transform="rotate(180 59.89976188586006 -11.42398302012893)" font-family="sans-serif">PRODUCED</text></g><g class="relationship" transform="translate(182.3452420891786 -180.34743875884018) rotate(506.0589153845789)"><path class="outline" fill="#A5ABB6" stroke="none" d="M 24.018736134675446,6.953439040707552 L 24.277555179777966,5.987513214418485 A 145.2671964512389 145.2671964512389 0 0 0 42.142311153019804,9.590851538036787 L 42.006470704666334,10.58158226461748 A 146.2671964512389 146.2671964512389 0 0 1 24.018736134675446,6.953439040707552 Z M 77.80931229396016,11.066894084996335 L 77.70037576936312,10.072845377131017 A 145.2671964512389 145.2671964512389 0 0 0 95.65623738439366,6.955059829693987 L 94.95861054310487,4.037300965374762 L 102.58061254135333,5.813557010739991 L 96.58640650611207,10.84540498211962 L 95.88877966482328,7.9276461178003945 A 146.2671964512389 146.2671964512389 0 0 1 77.80931229396016,11.066894084996335"/><text text-anchor="middle" pointer-events="none" font-size="8px" fill="#000000" x="59.89976188586008" y="14.42398302012893" transform="rotate(180 59.89976188586008 11.42398302012893)" font-family="sans-serif">WROTE</text></g><g class="relationship" transform="translate(-351.35106069355896 114.39233738651403) rotate(326.4022946851322)"><path class="outline" fill="#A5ABB6" stroke="none" d="M 25 0.5 L 50.902833354933435 0.5 L 50.902833354933435 -0.5 L 25 -0.5 Z M 97.79345835493343 0.5 L 123.69629170986687 0.5 L 123.69629170986687 3.5 L 130.69629170986687 0 L 123.69629170986687 -3.5 L 123.69629170986687 -0.5 L 97.79345835493343 -0.5 Z"/><text text-anchor="middle" pointer-events="none" font-size="8px" fill="#000000" x="74.34814585493343" y="3" font-family="sans-serif">DIRECTED</text></g><g class="relationship" transform="translate(-82.14898995949181 113.19500421948138) rotate(211.3394133619895)"><path class="outline" fill="#A5ABB6" stroke="none" d="M 25 0.5 L 52.283456913988914 0.5 L 52.283456913988914 -0.5 L 25 -0.5 Z M 104.06470691398891 0.5 L 131.34816382797783 0.5 L 131.34816382797783 3.5 L 138.34816382797783 0 L 131.34816382797783 -3.5 L 131.34816382797783 -0.5 L 104.06470691398891 -0.5 Z"/><text text-anchor="middle" pointer-events="none" font-size="8px" fill="#000000" x="78.17408191398891" y="3" transform="rotate(180 78.17408191398891 0)" font-family="sans-serif">PRODUCED</text></g><g class="relationship" transform="translate(-83.47752735184866 29.276326285817632) rotate(212.0451247323108)"><path class="outline" fill="#A5ABB6" stroke="none" d="M 25 0.5 L 82.58494266773265 0.5 L 82.58494266773265 -0.5 L 25 -0.5 Z M 129.47556766773266 0.5 L 187.0605103354653 0.5 L 187.0605103354653 3.5 L 194.0605103354653 0 L 187.0605103354653 -3.5 L 187.0605103354653 -0.5 L 129.47556766773266 -0.5 Z"/><text text-anchor="middle" pointer-events="none" font-size="8px" fill="#000000" x="106.03025516773265" y="3" transform="rotate(180 106.03025516773265 0)" font-family="sans-serif">DIRECTED</text></g><g class="relationship" transform="translate(-83.47752735184866 29.276326285817632) rotate(290.1038893056043)"><path class="outline" fill="#A5ABB6" stroke="none" d="M 25 0.5 L 105.6473906921637 0.5 L 105.6473906921637 -0.5 L 25 -0.5 Z M 152.5380156921637 0.5 L 233.1854063843274 0.5 L 233.1854063843274 3.5 L 240.1854063843274 0 L 233.1854063843274 -3.5 L 233.1854063843274 -0.5 L 152.5380156921637 -0.5 Z"/><text text-anchor="middle" pointer-events="none" font-size="8px" fill="#000000" x="129.0927031921637" y="3" font-family="sans-serif">DIRECTED</text></g><g class="relationship" transform="translate(-212.07400544379172 295.8664491987056) rotate(226.7666212616379)"><path class="outline" fill="#A5ABB6" stroke="none" d="M 21.40063509461097,12.933012701892217 L 21.90063509461097,12.06698729810778 A 111.78986897961849 111.78986897961849 0 0 0 57.715248642153306,25.22573320091385 L 57.535623054203754,26.209468250687806 A 112.78986897961849 112.78986897961849 0 0 1 21.40063509461097,12.933012701892217 Z M 93.30845929850277,26.97209076967296 L 93.17092132763337,25.981594274692213 A 111.78986897961849 111.78986897961849 0 0 0 129.51378985558605,14.36113626072555 L 128.12587642273476,11.701494122596632 L 135.9509404166954,11.565945273760708 L 131.36434109938776,17.907325778230774 L 129.97642766653647,15.247683640101856 A 112.78986897961849 112.78986897961849 0 0 1 93.30845929850277,26.97209076967296"/><text text-anchor="middle" pointer-events="none" font-size="8px" fill="#000000" x="75.40226397014322" y="30.51848193373722" transform="rotate(180 75.40226397014322 27.51848193373722)" font-family="sans-serif">WROTE</text></g><g class="relationship" transform="translate(-212.07400544379172 295.8664491987056) rotate(226.7666212616379)"><path class="outline" fill="#A5ABB6" stroke="none" d="M 25 0.5 L 52.111999950551535 0.5 L 52.111999950551535 -0.5 L 25 -0.5 Z M 99.00262495055154 0.5 L 126.11462490110307 0.5 L 126.11462490110307 3.5 L 133.11462490110307 0 L 126.11462490110307 -3.5 L 126.11462490110307 -0.5 L 99.00262495055154 -0.5 Z"/><text text-anchor="middle" pointer-events="none" font-size="8px" fill="#000000" x="75.55731245055154" y="3" transform="rotate(180 75.55731245055154 0)" font-family="sans-serif">DIRECTED</text></g><g class="relationship" transform="translate(-212.07400544379172 295.8664491987056) rotate(226.7666212616379)"><path class="outline" fill="#A5ABB6" stroke="none" d="M 21.40063509461097,-12.933012701892217 L 21.90063509461097,-12.06698729810778 A 111.78986897961849 111.78986897961849 0 0 1 49.934210657490844,-23.51639262950755 L 49.68498092691473,-24.48483702202421 A 112.78986897961849 112.78986897961849 0 0 0 21.40063509461097,-12.933012701892217 Z M 101.22546841631112,-25.583601909730035 L 101.01773789012242,-24.6054158187998 A 111.78986897961849 111.78986897961849 0 0 1 129.51378985558605,-14.36113626072555 L 128.12587642273476,-11.701494122596632 L 135.9509404166954,-11.565945273760708 L 131.36434109938776,-17.907325778230774 L 129.97642766653647,-15.247683640101856 A 112.78986897961849 112.78986897961849 0 0 0 101.22546841631112,-25.583601909730035"/><text text-anchor="middle" pointer-events="none" font-size="8px" fill="#000000" x="75.4022639701432" y="-24.51848193373722" transform="rotate(180 75.4022639701432 -27.51848193373722)" font-family="sans-serif">PRODUCED</text></g><g class="relationship" transform="translate(123.09300109976338 175.75234951027215) rotate(523.5081031524591)"><path class="outline" fill="#A5ABB6" stroke="none" d="M 25 0.5 L 46.735990901293945 0.5 L 46.735990901293945 -0.5 L 25 -0.5 Z M 93.62661590129395 0.5 L 115.36260680258789 0.5 L 115.36260680258789 3.5 L 122.36260680258789 0 L 115.36260680258789 -3.5 L 115.36260680258789 -0.5 L 93.62661590129395 -0.5 Z"/><text text-anchor="middle" pointer-events="none" font-size="8px" fill="#000000" x="70.18130340129395" y="3" transform="rotate(180 70.18130340129395 0)" font-family="sans-serif">DIRECTED</text></g><g class="relationship" transform="translate(11.472363447900534 93.1255835106549) rotate(463.4125871054375)"><path class="outline" fill="#A5ABB6" stroke="none" d="M 25 0.5 L 34.58430711925035 0.5 L 34.58430711925035 -0.5 L 25 -0.5 Z M 86.36555711925035 0.5 L 95.9498642385007 0.5 L 95.9498642385007 3.5 L 102.9498642385007 0 L 95.9498642385007 -3.5 L 95.9498642385007 -0.5 L 86.36555711925035 -0.5 Z"/><text text-anchor="middle" pointer-events="none" font-size="8px" fill="#000000" x="60.47493211925035" y="3" transform="rotate(180 60.47493211925035 0)" font-family="sans-serif">PRODUCED</text></g></g><g class="layer nodes"><g class="node" transform="translate(-291.7526949917229,-330.0376147645004)"><circle class="outline" cx="0" cy="0" r="25" fill="#F79767" stroke="#f36924" stroke-width="2px"/><text text-anchor="middle" pointer-events="none" font-family="sans-serif" dy="1.5625" font-size="25" fill="#FFFFFF"/><text text-anchor="middle" pointer-events="none" font-family="sans-serif" dy="1.5625" font-size="25" fill="#FFFFFF"/><text text-anchor="middle" pointer-events="none" y="0" font-size="10px" fill="#FFFFFF" font-family="sans-serif"> Lana</text><text text-anchor="middle" pointer-events="none" y="10" font-size="10px" fill="#FFFFFF" font-family="sans-serif"> Wacho…</text></g><g class="node" transform="translate(-74.43806007354425,-101.03741801297389)"><circle class="outline" cx="0" cy="0" r="25" fill="#F79767" stroke="#f36924" stroke-width="2px"/><text text-anchor="middle" pointer-events="none" font-family="sans-serif" dy="1.5625" font-size="25" fill="#FFFFFF"/><text text-anchor="middle" pointer-events="none" y="5" font-size="10px" fill="#FFFFFF" font-family="sans-serif"> Joel Silver</text></g><g class="node" transform="translate(-158.82600312978582,-214.02707081754454)"><circle class="outline" cx="0" cy="0" r="25" fill="#57C7E3" stroke="#23b3d7" stroke-width="2px"/><text text-anchor="middle" pointer-events="none" font-family="sans-serif" dy="1.5625" font-size="25" fill="#FFFFFF"/><text text-anchor="middle" pointer-events="none" font-family="sans-serif" dy="1.5625" font-size="25" fill="#FFFFFF"/><text text-anchor="middle" pointer-events="none" y="0" font-size="10px" fill="#FFFFFF" font-family="sans-serif"> The</text><text text-anchor="middle" pointer-events="none" y="10" font-size="10px" fill="#FFFFFF" font-family="sans-serif"> Matrix</text></g><g class="node" transform="translate(-532.1821606836799,53.135517122146695)"><circle class="outline" cx="0" cy="0" r="25" fill="#F79767" stroke="#f36924" stroke-width="2px"/><text text-anchor="middle" pointer-events="none" font-family="sans-serif" dy="1.5625" font-size="25" fill="#FFFFFF"/><text text-anchor="middle" pointer-events="none" font-family="sans-serif" dy="1.5625" font-size="25" fill="#FFFFFF"/><text text-anchor="middle" pointer-events="none" y="0" font-size="10px" fill="#FFFFFF" font-family="sans-serif"> Lilly</text><text text-anchor="middle" pointer-events="none" y="10" font-size="10px" fill="#FFFFFF" font-family="sans-serif"> Wacho…</text></g><g class="node" transform="translate(-330.0010360787794,-120.33003497573073)"><circle class="outline" cx="0" cy="0" r="25" fill="#57C7E3" stroke="#23b3d7" stroke-width="2px"/><text text-anchor="middle" pointer-events="none" font-family="sans-serif" dy="1.5625" font-size="25" fill="#FFFFFF"/><text text-anchor="middle" pointer-events="none" font-family="sans-serif" dy="1.5625" font-size="25" fill="#FFFFFF"/><text text-anchor="middle" pointer-events="none" font-family="sans-serif" dy="1.5625" font-size="25" fill="#FFFFFF"/><text text-anchor="middle" pointer-events="none" y="-5" font-size="10px" fill="#FFFFFF" font-family="sans-serif"> The</text><text text-anchor="middle" pointer-events="none" y="5" font-size="10px" fill="#FFFFFF" font-family="sans-serif"> Matrix</text><text text-anchor="middle" pointer-events="none" y="15" font-size="10px" fill="#FFFFFF" font-family="sans-serif"> Reloa…</text></g><g class="node" transform="translate(-449.0618059486574,-166.66824707107153)"><circle class="outline" cx="0" cy="0" r="25" fill="#57C7E3" stroke="#23b3d7" stroke-width="2px"/><text text-anchor="middle" pointer-events="none" font-family="sans-serif" dy="1.5625" font-size="25" fill="#FFFFFF"/><text text-anchor="middle" pointer-events="none" font-family="sans-serif" dy="1.5625" font-size="25" fill="#FFFFFF"/><text text-anchor="middle" pointer-events="none" font-family="sans-serif" dy="1.5625" font-size="25" fill="#FFFFFF"/><text text-anchor="middle" pointer-events="none" y="-5" font-size="10px" fill="#FFFFFF" font-family="sans-serif"> The</text><text text-anchor="middle" pointer-events="none" y="5" font-size="10px" fill="#FFFFFF" font-family="sans-serif"> Matrix</text><text text-anchor="middle" pointer-events="none" y="15" font-size="10px" fill="#FFFFFF" font-family="sans-serif"> Revol…</text></g><g class="node" transform="translate(46.78409966102612,-3.657121575331253)"><circle class="outline" cx="0" cy="0" r="25" fill="#F79767" stroke="#f36924" stroke-width="2px"/><text text-anchor="middle" pointer-events="none" font-family="sans-serif" dy="1.5625" font-size="25" fill="#FFFFFF"/><text text-anchor="middle" pointer-events="none" font-family="sans-serif" dy="1.5625" font-size="25" fill="#FFFFFF"/><text text-anchor="middle" pointer-events="none" y="0" font-size="10px" fill="#FFFFFF" font-family="sans-serif"> Cameron</text><text text-anchor="middle" pointer-events="none" y="10" font-size="10px" fill="#FFFFFF" font-family="sans-serif"> Crowe</text></g><g class="node" transform="translate(202.5214945240547,74.1512999339124)"><circle class="outline" cx="0" cy="0" r="25" fill="#57C7E3" stroke="#23b3d7" stroke-width="2px"/><text text-anchor="middle" pointer-events="none" font-family="sans-serif" dy="1.5625" font-size="25" fill="#FFFFFF"/><text text-anchor="middle" pointer-events="none" font-family="sans-serif" dy="1.5625" font-size="25" fill="#FFFFFF"/><text text-anchor="middle" pointer-events="none" y="0" font-size="10px" fill="#FFFFFF" font-family="sans-serif"> Jerry</text><text text-anchor="middle" pointer-events="none" y="10" font-size="10px" fill="#FFFFFF" font-family="sans-serif"> Maguire</text></g><g class="node" transform="translate(221.74438618176058,-67.63129529500686)"><circle class="outline" cx="0" cy="0" r="25" fill="#F79767" stroke="#f36924" stroke-width="2px"/><text text-anchor="middle" pointer-events="none" font-family="sans-serif" dy="1.5625" font-size="25" fill="#FFFFFF"/><text text-anchor="middle" pointer-events="none" font-family="sans-serif" dy="1.5625" font-size="25" fill="#FFFFFF"/><text text-anchor="middle" pointer-events="none" y="0" font-size="10px" fill="#FFFFFF" font-family="sans-serif"> Rob</text><text text-anchor="middle" pointer-events="none" y="10" font-size="10px" fill="#FFFFFF" font-family="sans-serif"> Reiner</text></g><g class="node" transform="translate(182.3452420891786,-180.34743875884018)"><circle class="outline" cx="0" cy="0" r="25" fill="#F79767" stroke="#f36924" stroke-width="2px"/><text text-anchor="middle" pointer-events="none" font-family="sans-serif" dy="1.5625" font-size="25" fill="#FFFFFF"/><text text-anchor="middle" pointer-events="none" font-family="sans-serif" dy="1.5625" font-size="25" fill="#FFFFFF"/><text text-anchor="middle" pointer-events="none" y="0" font-size="10px" fill="#FFFFFF" font-family="sans-serif"> Nora</text><text text-anchor="middle" pointer-events="none" y="10" font-size="10px" fill="#FFFFFF" font-family="sans-serif"> Ephron</text></g><g class="node" transform="translate(77.07138655918965,-109.4967166365007)"><circle class="outline" cx="0" cy="0" r="25" fill="#57C7E3" stroke="#23b3d7" stroke-width="2px"/><text text-anchor="middle" pointer-events="none" font-family="sans-serif" dy="1.5625" font-size="25" fill="#FFFFFF"/><text text-anchor="middle" pointer-events="none" font-family="sans-serif" dy="1.5625" font-size="25" fill="#FFFFFF"/><text text-anchor="middle" pointer-events="none" font-family="sans-serif" dy="1.5625" font-size="25" fill="#FFFFFF"/><text text-anchor="middle" pointer-events="none" y="-5" font-size="10px" fill="#FFFFFF" font-family="sans-serif"> When</text><text text-anchor="middle" pointer-events="none" y="5" font-size="10px" fill="#FFFFFF" font-family="sans-serif"> Harry Met</text><text text-anchor="middle" pointer-events="none" y="15" font-size="10px" fill="#FFFFFF" font-family="sans-serif"> Sally</text></g><g class="node" transform="translate(-351.35106069355896,114.39233738651403)"><circle class="outline" cx="0" cy="0" r="25" fill="#F79767" stroke="#f36924" stroke-width="2px"/><text text-anchor="middle" pointer-events="none" font-family="sans-serif" dy="1.5625" font-size="25" fill="#FFFFFF"/><text text-anchor="middle" pointer-events="none" font-family="sans-serif" dy="1.5625" font-size="25" fill="#FFFFFF"/><text text-anchor="middle" pointer-events="none" y="0" font-size="10px" fill="#FFFFFF" font-family="sans-serif"> Tom</text><text text-anchor="middle" pointer-events="none" y="10" font-size="10px" fill="#FFFFFF" font-family="sans-serif"> Tykwer</text></g><g class="node" transform="translate(-82.14898995949181,113.19500421948138)"><circle class="outline" cx="0" cy="0" r="25" fill="#F79767" stroke="#f36924" stroke-width="2px"/><text text-anchor="middle" pointer-events="none" font-family="sans-serif" dy="1.5625" font-size="25" fill="#FFFFFF"/><text text-anchor="middle" pointer-events="none" font-family="sans-serif" dy="1.5625" font-size="25" fill="#FFFFFF"/><text text-anchor="middle" pointer-events="none" y="0" font-size="10px" fill="#FFFFFF" font-family="sans-serif"> Stefan</text><text text-anchor="middle" pointer-events="none" y="10" font-size="10px" fill="#FFFFFF" font-family="sans-serif"> Arndt</text></g><g class="node" transform="translate(-221.66486160038403,28.23651914439325)"><circle class="outline" cx="0" cy="0" r="25" fill="#57C7E3" stroke="#23b3d7" stroke-width="2px"/><text text-anchor="middle" pointer-events="none" font-family="sans-serif" dy="1.5625" font-size="25" fill="#FFFFFF"/><text text-anchor="middle" pointer-events="none" font-family="sans-serif" dy="1.5625" font-size="25" fill="#FFFFFF"/><text text-anchor="middle" pointer-events="none" y="0" font-size="10px" fill="#FFFFFF" font-family="sans-serif"> Cloud</text><text text-anchor="middle" pointer-events="none" y="10" font-size="10px" fill="#FFFFFF" font-family="sans-serif"> Atlas</text></g><g class="node" transform="translate(-83.47752735184866,29.276326285817632)"><circle class="outline" cx="0" cy="0" r="25" fill="#F79767" stroke="#f36924" stroke-width="2px"/><text text-anchor="middle" pointer-events="none" font-family="sans-serif" dy="1.5625" font-size="25" fill="#FFFFFF"/><text text-anchor="middle" pointer-events="none" font-family="sans-serif" dy="1.5625" font-size="25" fill="#FFFFFF"/><text text-anchor="middle" pointer-events="none" y="0" font-size="10px" fill="#FFFFFF" font-family="sans-serif"> James</text><text text-anchor="middle" pointer-events="none" y="10" font-size="10px" fill="#FFFFFF" font-family="sans-serif"> Marshall</text></g><g class="node" transform="translate(7.672912934817134,-219.75157776264004)"><circle class="outline" cx="0" cy="0" r="25" fill="#57C7E3" stroke="#23b3d7" stroke-width="2px"/><text text-anchor="middle" pointer-events="none" font-family="sans-serif" dy="1.5625" font-size="25" fill="#FFFFFF"/><text text-anchor="middle" pointer-events="none" font-family="sans-serif" dy="1.5625" font-size="25" fill="#FFFFFF"/><text text-anchor="middle" pointer-events="none" y="0" font-size="10px" fill="#FFFFFF" font-family="sans-serif"> V for</text><text text-anchor="middle" pointer-events="none" y="10" font-size="10px" fill="#FFFFFF" font-family="sans-serif"> Vendetta</text></g><g class="node" transform="translate(-330.0884567492012,-189.11059101226365)"><circle class="outline" cx="0" cy="0" r="25" fill="#57C7E3" stroke="#23b3d7" stroke-width="2px"/><text text-anchor="middle" pointer-events="none" font-family="sans-serif" dy="1.5625" font-size="25" fill="#FFFFFF"/><text text-anchor="middle" pointer-events="none" font-family="sans-serif" dy="1.5625" font-size="25" fill="#FFFFFF"/><text text-anchor="middle" pointer-events="none" y="0" font-size="10px" fill="#FFFFFF" font-family="sans-serif"> Speed</text><text text-anchor="middle" pointer-events="none" y="10" font-size="10px" fill="#FFFFFF" font-family="sans-serif"> Racer</text></g><g class="node" transform="translate(-269.15989330210715,-86.95433302380162)"><circle class="outline" cx="0" cy="0" r="25" fill="#57C7E3" stroke="#23b3d7" stroke-width="2px"/><text text-anchor="middle" pointer-events="none" font-family="sans-serif" dy="1.5625" font-size="25" fill="#FFFFFF"/><text text-anchor="middle" pointer-events="none" font-family="sans-serif" dy="1.5625" font-size="25" fill="#FFFFFF"/><text text-anchor="middle" pointer-events="none" y="0" font-size="10px" fill="#FFFFFF" font-family="sans-serif"> Ninja</text><text text-anchor="middle" pointer-events="none" y="10" font-size="10px" fill="#FFFFFF" font-family="sans-serif"> Assassin</text></g><g class="node" transform="translate(-212.07400544379172,295.8664491987056)"><circle class="outline" cx="0" cy="0" r="25" fill="#F79767" stroke="#f36924" stroke-width="2px"/><text text-anchor="middle" pointer-events="none" font-family="sans-serif" dy="1.5625" font-size="25" fill="#FFFFFF"/><text text-anchor="middle" pointer-events="none" font-family="sans-serif" dy="1.5625" font-size="25" fill="#FFFFFF"/><text text-anchor="middle" pointer-events="none" y="0" font-size="10px" fill="#FFFFFF" font-family="sans-serif"> Nancy</text><text text-anchor="middle" pointer-events="none" y="10" font-size="10px" fill="#FFFFFF" font-family="sans-serif"> Meyers</text></g><g class="node" transform="translate(-320.3780431937839,180.66892311995343)"><circle class="outline" cx="0" cy="0" r="25" fill="#57C7E3" stroke="#23b3d7" stroke-width="2px"/><text text-anchor="middle" pointer-events="none" font-family="sans-serif" dy="1.5625" font-size="25" fill="#FFFFFF"/><text text-anchor="middle" pointer-events="none" y="5" font-size="10px" fill="#FFFFFF" font-family="sans-serif"> Somethi…</text></g><g class="node" transform="translate(123.09300109976338,175.75234951027215)"><circle class="outline" cx="0" cy="0" r="25" fill="#F79767" stroke="#f36924" stroke-width="2px"/><text text-anchor="middle" pointer-events="none" font-family="sans-serif" dy="1.5625" font-size="25" fill="#FFFFFF"/><text text-anchor="middle" pointer-events="none" font-family="sans-serif" dy="1.5625" font-size="25" fill="#FFFFFF"/><text text-anchor="middle" pointer-events="none" y="0" font-size="10px" fill="#FFFFFF" font-family="sans-serif"> Joe</text><text text-anchor="middle" pointer-events="none" y="10" font-size="10px" fill="#FFFFFF" font-family="sans-serif"> Johnston</text></g><g class="node" transform="translate(11.472363447900534,93.1255835106549)"><circle class="outline" cx="0" cy="0" r="25" fill="#F79767" stroke="#f36924" stroke-width="2px"/><text text-anchor="middle" pointer-events="none" font-family="sans-serif" dy="1.5625" font-size="25" fill="#FFFFFF"/><text text-anchor="middle" pointer-events="none" font-family="sans-serif" dy="1.5625" font-size="25" fill="#FFFFFF"/><text text-anchor="middle" pointer-events="none" y="0" font-size="10px" fill="#FFFFFF" font-family="sans-serif"> Kevin</text><text text-anchor="middle" pointer-events="none" y="10" font-size="10px" fill="#FFFFFF" font-family="sans-serif"> Feige</text></g><g class="node" transform="translate(-18.207092236540745,217.58560789168274)"><circle class="outline" cx="0" cy="0" r="25" fill="#57C7E3" stroke="#23b3d7" stroke-width="2px"/><text text-anchor="middle" pointer-events="none" font-family="sans-serif" dy="1.5625" font-size="25" fill="#FFFFFF"/><text text-anchor="middle" pointer-events="none" font-family="sans-serif" dy="1.5625" font-size="25" fill="#FFFFFF"/><text text-anchor="middle" pointer-events="none" font-family="sans-serif" dy="1.5625" font-size="25" fill="#FFFFFF"/><text text-anchor="middle" pointer-events="none" y="-5" font-size="10px" fill="#FFFFFF" font-family="sans-serif"> Captain</text><text text-anchor="middle" pointer-events="none" y="5" font-size="10px" fill="#FFFFFF" font-family="sans-serif"> America:</text><text text-anchor="middle" pointer-events="none" y="15" font-size="10px" fill="#FFFFFF" font-family="sans-serif"> The Fi…</text></g></g></svg>